<svg xmlns="http://www.w3.org/2000/svg" viewBox="0 0 560 241.87"><defs><style>.cls-1{font-size:20px;fill:#f40868;font-family:Montserrat-Regular, Montserrat;}.cls-2{letter-spacing:-0.01em;}.cls-3{letter-spacing:0.01em;}.cls-4{letter-spacing:-0.01em;}.cls-5{letter-spacing:-0.04em;}</style></defs><title>logo_with_title</title><g id="Capa_2" data-name="Capa 2"><g id="Capa_1-2" data-name="Capa 1"><path d="M67.1,32.87,42,181.65,193.74,2.59a5.33,5.33,0,0,1,2.59-1.9A15.88,15.88,0,0,1,199.45,0a7.25,7.25,0,0,1,5.27,2.34,7.25,7.25,0,0,1,2.34,5.27,7.83,7.83,0,0,1-1.73,4.85.15.15,0,0,0-.17.17L39.94,191.68a2.58,2.58,0,0,1-1.9.7,2.22,2.22,0,0,1-1.73-.78,2.67,2.67,0,0,1-.69-1.82L54.13,31a6.39,6.39,0,0,1,2.16-4.16,6.58,6.58,0,0,1,4.41-1.55,5.93,5.93,0,0,1,4.59,2,6.37,6.37,0,0,1,1.81,4.41Z"/><path d="M134.4,112.45l-.52,1-1.56,3.63a47.5,47.5,0,0,1-1.9,5.1,36.7,36.7,0,0,0-1.73,4.76l-1.56,5-.52,2.42a18,18,0,0,0-.78,2.77c-.17.92-.37,1.85-.6,2.77l2.59-3.29,3.29-4.15,3.12-4.33,4.49-6.4,2.43-3.29,2.07-3.28,1.56-2.25a35.7,35.7,0,0,0,2.33-3.89,3.75,3.75,0,0,1,3.55-2.17,3.26,3.26,0,0,1,2.51,1,3.3,3.3,0,0,1,1,2.25,6.13,6.13,0,0,1-1.64,3.55c-1,1.09-1.82,2.1-2.51,3L145.3,123l-3.12,4.33-7.78,10.72-3.12,4.5L128,146.88l-1.73,2.25-.69.69c-.12,0-.18,0-.18.08s-.05.09-.17.09l-.35.35c-.11,0-.17,0-.17.08s-.06.09-.17.09l-.35.17c-.23.23-.43.32-.6.26a.39.39,0,0,0-.44.09l-2.07-.35a3.66,3.66,0,0,1-1.21-.69l-.87-.86-.34-.7a1,1,0,0,1-.35-.69.74.74,0,0,0-.17-.52l-.35-1a17.24,17.24,0,0,0-.17-2.5,14.8,14.8,0,0,1-.18-2.34l.52-5.71.52-5.36L120.9,114l.7-5.37v-.17a6.76,6.76,0,0,1,2.25-4.15,6.69,6.69,0,0,1,9.25.26,6.69,6.69,0,0,1,2,4.93A6.49,6.49,0,0,1,134.4,112.45ZM129,81.31l.51-5.88a6.84,6.84,0,0,1,2.34-4.5,6.69,6.69,0,0,1,9.34.35,7,7,0,0,1,1.82,6.4c-.12.46-.23.86-.35,1.21l-2.59,5.53a5.73,5.73,0,0,1-2.34,2.34,6.39,6.39,0,0,1-3,.78,4.88,4.88,0,0,1-4.32-2A7.32,7.32,0,0,1,129,81.31Z"/><path d="M163.63,107.78h-.17l.17-.17c-.11,0-.17,0-.17-.09s-.06-.09-.17-.09a4.94,4.94,0,0,0-3,1.13,22.51,22.51,0,0,0-2.77,2.51c-.86.92-1.7,1.9-2.51,2.94a28,28,0,0,1-1.9,2.25c-1.38,2.76-2.62,5.13-3.72,7.09a78.74,78.74,0,0,0-3.55,7.44l-.69,2.77a15.27,15.27,0,0,0-.52,4,7.69,7.69,0,0,0,.18,2,1.33,1.33,0,0,0,.43.78c.17.12.32.12.43,0l.35.18h.34a21.78,21.78,0,0,0,3.38-1.73,47,47,0,0,0,4.58-3.29l6.58-6.58a39.53,39.53,0,0,0,4.06-4.75c1.21-1.67,2.51-3.32,3.89-4.93l1.91-2.6,1.73-2.59,2.76-4,.7-1.39a3.18,3.18,0,0,1,2.76-1.55,3,3,0,0,1,2.34,1,3.49,3.49,0,0,1,.95,2.42,2.9,2.9,0,0,1-.34,1.55l-1.22,1.56-2.94,4a17.24,17.24,0,0,0-2.07,2.59l-1.91,2.43c-1.38,1.73-2.74,3.46-4.06,5.19s-2.74,3.4-4.24,5l-4.5,4.85-3,3a33,33,0,0,1-3.46,3,22.91,22.91,0,0,1-3.71,2.34,8.2,8.2,0,0,1-3.64,1h-2.07a11.22,11.22,0,0,1-5.37-3q-2.07-2.16-2.07-8a39.84,39.84,0,0,1,1.73-11.59,69.61,69.61,0,0,1,4.06-10.47,68.26,68.26,0,0,1,4.76-8.3,37.92,37.92,0,0,1,4-5.11A22.86,22.86,0,0,1,156,97.23a34.86,34.86,0,0,1,5.88-2.77l3.12-.18a6,6,0,0,1,4.84,2A6.79,6.79,0,0,1,165,108,4.42,4.42,0,0,1,163.63,107.78Z"/><path d="M181.28,78.71l4.5-.69c.23-.92.49-1.81.78-2.68s.6-1.76.95-2.68l2.76-6.75.87-1.9a8.63,8.63,0,0,0,1.47-2,6.74,6.74,0,0,1,1.64-2l.87-.52,1.12-.52a4,4,0,0,1,1.65-.34h1a6.25,6.25,0,0,1,4.85,2.42,7.5,7.5,0,0,1,2.07,4.84,8.34,8.34,0,0,1-.08,1.21,6.18,6.18,0,0,0-.09,1l-1,3.46-1.21,3.29,85.12-15.23h1a6.8,6.8,0,0,1,6.92,6.92,6.76,6.76,0,0,1-5.71,6.58L199.44,83.39a5.35,5.35,0,0,1-.34.6,4.27,4.27,0,0,0-.35.61l-2.42,4.67-1.9,3.11c-.24.69-.47,1.36-.7,2s-.46,1.24-.69,1.82l-4.5,12.8-4.15,12.8c-.34,1-.72,2.11-1.12,3.2a23.9,23.9,0,0,0-1,3.2l-1.91,6.58-.86,3.11q-1.38,4.67-2.77,10.55a34.47,34.47,0,0,0-1,10.38,2.86,2.86,0,0,0,.09.7,2.67,2.67,0,0,1,.09.69v.17l1.55-1,3.29-3.28,4-5.19,3.8-5.54,5.19-8.82,1.56-2.77a61.86,61.86,0,0,0,3.12-6.06,60.57,60.57,0,0,1,3.11-6l4.15-9.17,1.39-3.11a2.55,2.55,0,0,1,2.59-1.73q2.94,0,2.94,2.76a2.74,2.74,0,0,1-.09.7,3.25,3.25,0,0,0-.08.69L206,123.87,196.16,142c-.58,1-1.19,2-1.82,2.94a18.38,18.38,0,0,0-1.64,2.94l-3.81,5.71c-.81,1.16-1.7,2.45-2.68,3.9a37.36,37.36,0,0,1-3.2,4.06,22.85,22.85,0,0,1-3.72,3.29,7.07,7.07,0,0,1-4.07,1.38h-.52q-2.41,0-4.32-4l-.17-1a16.28,16.28,0,0,1-.44-4.07c.06-1.1.09-2.28.09-3.55q.52-5.35,1.21-10.55t1.56-10.21l1.21-6.74c.23-1.16.46-2.28.69-3.38s.46-2.22.69-3.37l1.39-6.92a3.49,3.49,0,0,1-.69-2.25,12.84,12.84,0,0,1,1.64-6.83,31.8,31.8,0,0,0,2.68-6.49l1.21-4.33,2.08-7.43-1.39.17a4.31,4.31,0,0,1-2.51-.78A2.83,2.83,0,0,1,178.51,82,3.18,3.18,0,0,1,181.28,78.71Z"/><path d="M224.18,124.91l.35.51a.72.72,0,0,1,.34.09.76.76,0,0,0,.35.09,4.27,4.27,0,0,0,1.9-.69l2.08-1.39,2.68-2.68a18.4,18.4,0,0,0,2.85-3.89l.87-1.21a4.88,4.88,0,0,1,1-1.91,6.66,6.66,0,0,0,1.12-2.25l1.39-2.59a3.23,3.23,0,0,1,3.28-2.25,3.3,3.3,0,0,1,2.6,1.21,4,4,0,0,1,1,2.6,2.29,2.29,0,0,1-.18,1l-.51.7q-.36.69-.78,1.38c-.29.46-.61.93-.95,1.38l-2.77,4.16-2.77,4a45.27,45.27,0,0,1-4.5,5.19l-1.38,1.21a6.16,6.16,0,0,1-.69.6c-.24.18-.52.38-.87.61l-1.73,1c-.58.23-1.27.46-2.08.69a10.07,10.07,0,0,1-2.76.34c-.58-.11-1.24-.26-2-.43s-1.13-.31-1.13-.43a31.32,31.32,0,0,1-2.94,4.84q-1.56,2.08-3.46,4.5l-2.42,2.25a15.58,15.58,0,0,1-2.68,1.73,7.48,7.48,0,0,1-3.55.86h-.69a8.46,8.46,0,0,1-5.45-2.24q-2.69-2.25-2.68-7.1a37.51,37.51,0,0,1,.52-6.23l1-4.49.34-1.39,1.9-5.53,2.43-5.54q.87-1.91,2-4.32a10.87,10.87,0,0,1,2.5-3.64l1.22-1.38c.11-.23.26-.49.43-.78a3.85,3.85,0,0,1,.6-.78l1.56-1.21,2.77-1.73a8.43,8.43,0,0,1,4.32-.86,2.51,2.51,0,0,1,1,.17h.87a6.43,6.43,0,0,1,4.24,2.33,6.81,6.81,0,0,1,1.64,4.42v.69l-.17.86a9.14,9.14,0,0,1,.43,2c.06.64.08,1.24.08,1.82v1.9a16.56,16.56,0,0,1-.08,1.73c-.06.58-.15,1.16-.26,1.73l-.69,3.12c-.24.92-.5,1.78-.78,2.59s-.61,1.67-1,2.6ZM211,118.16a34.75,34.75,0,0,0-2.77,4.32q-1.2,2.25-2.25,4.67l-.69,2.43c-.46,1.61-.83,3-1.12,4.06a8.1,8.1,0,0,0-.26,3,9.22,9.22,0,0,0,.17,1.73c.12.58.23.86.35.86l1.21.18a12.56,12.56,0,0,0,2.07-1.21l1.56-1.56a1.92,1.92,0,0,1,.69-.87l1.91-3.11c.57-1.27,1.15-2.59,1.73-4a19.14,19.14,0,0,0,1.21-4.15,9.18,9.18,0,0,1-1.21-3.29,18.68,18.68,0,0,1-.35-3.46l-.35-2.25a13,13,0,0,0-1,1.21A9.3,9.3,0,0,0,211,118.16Z"/><path d="M239.06,109l10.2-21.28v.17l.52-1.21A6.11,6.11,0,0,1,255.49,83a5.63,5.63,0,0,1,4.59,2,6.8,6.8,0,0,1,1.64,4.41,4.61,4.61,0,0,1-.17,1.38l-.35,1.56-2.94,6.75-2.77,6.75c-.92,2.3-1.88,4.61-2.85,6.92s-1.88,4.61-2.69,6.92l-.69,1.55a67.12,67.12,0,0,1,6.75-8.65c2.54-2.77,4.9-5.24,7.09-7.44l5-5h.35a6.2,6.2,0,0,1,4.32-1.56,6.74,6.74,0,0,1,4.5,1.82,5.84,5.84,0,0,1,2.07,4.58,5.63,5.63,0,0,1-.34,2.08,9.34,9.34,0,0,1-.78,1.55,6.26,6.26,0,0,1-.69,1c-.18.17-.2.2-.09.08a4.71,4.71,0,0,0-.86,1h.17l-.35.17a21.17,21.17,0,0,0-3.28,4.24q-1.39,2.34-2.34,4.33a50.88,50.88,0,0,0-2,4.93.72.72,0,0,0-.17.52c1.73,0,4-.93,6.83-2.77a19,19,0,0,0,6.66-7.61l2.08-4.16.34-1a4.74,4.74,0,0,0,1.21-2c.24-.75,1-1.13,2.25-1.13a3.54,3.54,0,0,1,2.6,1,3.33,3.33,0,0,1,1,2.42,4.86,4.86,0,0,1-.18,1.21,2.25,2.25,0,0,1-.51,1l-1.21,1.73-2.95,4q-9.69,13.15-19.55,13.15l-.86-.18a3,3,0,0,1-2.08-1,6.09,6.09,0,0,1-1.38-1.91l-.52-1.38a11.57,11.57,0,0,1-.17-2.25v-1.73a147.28,147.28,0,0,0-11.77,12.11,87.25,87.25,0,0,0-9.86,13.84,3,3,0,0,1-2.94,2.08,3.12,3.12,0,0,1-2.16-.87,2.56,2.56,0,0,1-.95-1.9.73.73,0,0,1,.08-.43.36.36,0,0,0,.09-.26v-.35a87.8,87.8,0,0,1,2.34-15.14q1.81-7.35,3.72-14.62l.86-2.76a3.54,3.54,0,0,1-2.77-3.64A4.35,4.35,0,0,1,239.06,109Zm28.71,15.92.18.17.17-.17Z"/><path d="M369.5,43.77h-2.6l-2.08.34-1.55.52a32.52,32.52,0,0,1,13.23,12q4.94,7.88,4.93,22.57a106.22,106.22,0,0,1-3.72,28A235.91,235.91,0,0,1,369,133.38l-5,11.07q-4.33,9-9.95,18.43a117.22,117.22,0,0,1-12.54,17.3,72,72,0,0,1-15.14,13.15,37.21,37.21,0,0,1-17.56,6l-3.46-.17q-9.35-1.73-13.49-8.3t-4.15-20.07a197.82,197.82,0,0,1,14.87-60.29A234.32,234.32,0,0,1,336.11,54c1.61-2.08,3.43-4.21,5.45-6.41a86.9,86.9,0,0,1,6.57-6.4,47.46,47.46,0,0,1,7.78-5.53A36.25,36.25,0,0,1,364.82,32l1.91-.34h1l.35-.17h.52a6.88,6.88,0,0,1,4.67,1.64,5.73,5.73,0,0,1,1.9,4.58,5.81,5.81,0,0,1-1.64,4.16A6,6,0,0,1,369.5,43.77ZM343.2,60.2a191.91,191.91,0,0,0-17.3,23.27,276.89,276.89,0,0,0-14.53,25.87l-4.85,10.72a153.28,153.28,0,0,0-8.73,25.35,190.63,190.63,0,0,0-4.59,25.69,72.32,72.32,0,0,0,.43,7.69,24.26,24.26,0,0,0,1.91,7.36,14.14,14.14,0,0,0,4.24,5.45,11.74,11.74,0,0,0,7.43,2.16,25,25,0,0,0,10.12-2.16,43.45,43.45,0,0,0,9.35-5.63,60.29,60.29,0,0,0,8.13-7.69q3.72-4.25,6.66-8.31a89,89,0,0,0,4.93-7.52c1.32-2.31,2.34-4.1,3-5.37l2.94-5q5-10.22,9.34-21.63l1.73-5.53a126.91,126.91,0,0,0,5.28-20.42,114.86,114.86,0,0,0,1.81-19.37,78.77,78.77,0,0,0-.6-9.69,28.74,28.74,0,0,0-2.51-8.83,17.15,17.15,0,0,0-5.28-6.48c-2.25-1.67-5.27-2.51-9.08-2.51a1.15,1.15,0,0,0-.52.09,1.38,1.38,0,0,1-.52.08,5.87,5.87,0,0,1-2.51-.52,9.38,9.38,0,0,1-2.16-1.38Z"/><path d="M384.72,110v-.35l.34-1,.52-1.38a146.51,146.51,0,0,1,7.88-16.35q4.41-7.87,9.08-15.31l1.55-4.67,4-10.9,3.81-8.3a10.17,10.17,0,0,1,1.56-2.94l.86-1.56,1.39-1.56a7.39,7.39,0,0,0,.77-1c.29-.4.55-.61.78-.61l1.39-1,1.55-.7a2,2,0,0,0,.78-.17,3.84,3.84,0,0,1,1.3-.17l2.94.34a6.65,6.65,0,0,1,4.15,3,7.7,7.7,0,0,1,1.21,3.2l.35,1.21a1.85,1.85,0,0,1-.17,1l-.18,1.56a16.11,16.11,0,0,1-.69,2.42l-.52,1.73-3.11,5.71-1.56,2.42a23.64,23.64,0,0,1-3.8,6.14,56.3,56.3,0,0,0-4.33,5.8l-1.38,2.07-2.6,6.92q-2.07,5.37-3.8,10.64t-3.64,10.64l-7.61,21.28c-.58,1.73-1.18,3.46-1.82,5.19s-1.29,3.46-2,5.19l.52-.52q6.58-6.92,12.46-13.92A116.3,116.3,0,0,0,417.42,109a2.85,2.85,0,0,1,2.59-1.38,2.2,2.2,0,0,1,1.9,1,3.14,3.14,0,0,1,.7,1.81,5.64,5.64,0,0,1-.87,2.6,38.72,38.72,0,0,1-2.08,3.29c-.8,1.15-1.64,2.27-2.5,3.37s-1.59,2.05-2.17,2.85a143,143,0,0,1-10.2,12.37q-5.37,5.81-11.08,11.51l-3.63,3.28-1.21,1.22a3.4,3.4,0,0,1-1.73.52,3.25,3.25,0,0,1-2.08-.7,2.5,2.5,0,0,1-.86-2.07,24.89,24.89,0,0,1,.78-6.06q.78-3.11,1.47-5.88,1.73-7.44,3.37-14.79t3.55-14.79a38.41,38.41,0,0,0-2.86,4.15c-1,1.62-2.05,2.42-3.2,2.42a2.71,2.71,0,0,1-2-.78,2.48,2.48,0,0,1-.78-1.81A2.34,2.34,0,0,1,384.72,110Z"/><path d="M434.2,105.88h-.35v.17l-1.21.34-1.73.87-1.73,1.38-2.51,2.51a23.78,23.78,0,0,0-2.51,3l-2.94,4.15a104.71,104.71,0,0,0-4.67,9.52l-1,2.42a21.08,21.08,0,0,0-1.55,5l-.7,2.42a25.24,25.24,0,0,0-.52,2.68,17.83,17.83,0,0,0-.17,2.16v.69L414,142a6.44,6.44,0,0,1,.69-1.12c.23-.29.46-.61.69-.95l1.21-2.25a51.38,51.38,0,0,0,3.29-7.27c.92-2.53,1.78-5.13,2.59-7.78l.52-2.6a.5.5,0,0,1,.17-.34l.18-.87v-.35a.46.46,0,0,1,.17-.34v-.69l.86-1.39a5,5,0,0,1,2-2.33,5.46,5.46,0,0,1,2.86-.78,5.12,5.12,0,0,1,4.24,1.82,6.06,6.06,0,0,1,1.47,3.89,5,5,0,0,1-.18,1.55v.52l-.51,1.73,6.4-10.38a26.79,26.79,0,0,0,2.07-3.28,3.64,3.64,0,0,1,3.46-1.91,3.12,3.12,0,0,1,2.51,1.13,3.82,3.82,0,0,1,.95,2.51,3.08,3.08,0,0,1-.52,1.9l-4.32,7.27-8.48,14.53-3.8,7.26a3.57,3.57,0,0,1-3.46,2.43,3.26,3.26,0,0,1-3.12-1.56l-.86-1.56-.52-1a1.66,1.66,0,0,1-.18-.78,1.64,1.64,0,0,0-.17-.77l-1.9,2.94-.87,1-.86,1.38a8.33,8.33,0,0,1-1.82,2.42c-.75.69-1.58,1.44-2.51,2.25l-1.55,1.21-1.21.35c-.23,0-.35.05-.35.17h-.52a9.57,9.57,0,0,1-2.77-.43,4,4,0,0,1-2.25-2l-.51-1.21a8.47,8.47,0,0,1-.52-1.82,9.75,9.75,0,0,1-.18-1.82c0-1.15,0-2.16.09-3a29.9,29.9,0,0,1,.43-3.2l.52-2.77a14.1,14.1,0,0,1,.61-2.68,23.75,23.75,0,0,0,.77-3l.7-2.77a123.29,123.29,0,0,1,5-12.45,128.94,128.94,0,0,1,6.23-11.6L425.37,96l2.25-1.73.52-.34.35-.17a6.47,6.47,0,0,1,3.8-1.22,6.82,6.82,0,0,1,4.85,2,6.75,6.75,0,0,1,.78,8.83A6.67,6.67,0,0,1,434.2,105.88Z"/><path d="M453.4,111.93l-7.62,29.41.18-.17c1-1,2.07-2,3.11-2.86s2.13-1.75,3.29-2.68l6.23-5.19q4.83-4,9.68-7.52a62.75,62.75,0,0,0,9-8l2.6-2.77c.57-.92,1.21-1.87,1.9-2.85a3.38,3.38,0,0,1,2.94-1.47,2.92,2.92,0,0,1,2.25,1,3.17,3.17,0,0,1,.86,2.16,6.77,6.77,0,0,1-1.47,3.81,36.22,36.22,0,0,1-3.46,4.15,39.77,39.77,0,0,1-4.06,3.72,39.87,39.87,0,0,0-3.12,2.68c-2.07,1.85-4.18,3.63-6.31,5.36s-4.24,3.46-6.32,5.19l-6.4,5.19q-2.94,2.77-6,5.45a62.1,62.1,0,0,0-5.44,5.45L443,154.83a13.3,13.3,0,0,0-1.91,3.38,2.81,2.81,0,0,1-2.94,1.81,4.35,4.35,0,0,1-2.59-.86,2.8,2.8,0,0,1-1.21-2.42.85.85,0,0,1,.08-.35.72.72,0,0,0,.09-.34l5.71-46.71a6.41,6.41,0,0,1,2.33-4.24,6.76,6.76,0,0,1,4.42-1.65,6.29,6.29,0,0,1,4.84,2.08,6.93,6.93,0,0,1,1.9,4.84A2.84,2.84,0,0,1,453.4,111.93Z"/><path d="M481.25,139.26c-.11.93-.23,1.76-.35,2.51a16.1,16.1,0,0,0-.17,2.34,12.15,12.15,0,0,0,.17,1.9,3.14,3.14,0,0,0,.35,1.21l.34,1.21a.16.16,0,0,1,.18.18h.52a5.35,5.35,0,0,0,2.68-.87,24,24,0,0,0,2.94-2.07,31.09,31.09,0,0,0,2.85-2.69c.93-1,1.73-1.81,2.43-2.5l3.46-4.16c.57-.69,1.12-1.41,1.64-2.16s1.06-1.47,1.64-2.16l3.12-4.5q1.38-2.25,2.85-4.5c1-1.5,1.93-3,2.86-4.67l2.59-4.84,2.25-4.15.35-.7a2.65,2.65,0,0,1,1.29-1.55,4.08,4.08,0,0,1,2-.52,3.59,3.59,0,0,1,2.77,1.12,3.63,3.63,0,0,1,1,2.51,5.73,5.73,0,0,1-.35,1.73l-1.55,2.77L516,119.37q-2.94,4.5-5.27,8.48a61.58,61.58,0,0,1-5.63,8l-3.28,4.5a82.36,82.36,0,0,1-5.71,7.18,24,24,0,0,1-6.58,5.45l-1.21,1-3.29,1.38a13.93,13.93,0,0,1-3.11.52h-.86a6.08,6.08,0,0,1-4.41-2,10.64,10.64,0,0,1-2.69-4.06l-.52-1.91c-.23-1.15-.43-2.39-.6-3.71a30.77,30.77,0,0,1-.26-3.9c0-.8,0-1.61.09-2.42s.08-1.61.08-2.42l.35-2.77a137.48,137.48,0,0,1,2.59-14.7,48.35,48.35,0,0,1,5.54-13.84l1.9-2.77a24,24,0,0,1,4.07-4.76,9.15,9.15,0,0,1,6.49-2.51h1.21a15.28,15.28,0,0,1,3.2.78A6.57,6.57,0,0,1,502,98.26l1.21,2.43.52,2.59a11.26,11.26,0,0,1,.17,2.08,20.23,20.23,0,0,1-1.21,6.74,19.38,19.38,0,0,0-1.21,4.33l-.69,1.38-1,2.77-1.38,2.77c-.81,1.38-1.62,2.83-2.43,4.32a12.43,12.43,0,0,1-3.11,3.81l-2.77,2.25-1.73,1c-.46.11-.86.23-1.21.34a3.67,3.67,0,0,1-1.21.18h-1.56a5.24,5.24,0,0,1-1.21-.26c-.57-.18-.86-.32-.86-.44l-.52,2.25Zm4-11.41a1.59,1.59,0,0,1,.17.69,33.66,33.66,0,0,0,2.6-3.2,9.2,9.2,0,0,0,1.73-5.62l.17-.7.52-4v-.51l-.35.69-2.25,4.5-2.07,4.67-.7,1.73a4.72,4.72,0,0,0,.09.95A3.89,3.89,0,0,1,485.23,127.85Z"/><text class="cls-1" transform="translate(77.64 236.63)">DISEÑO &amp; DESARROL<tspan class="cls-2" x="219.16" y="0">L</tspan><tspan x="230.65" y="0">O DE SO</tspan><tspan class="cls-3" x="316.89" y="0">F</tspan><tspan class="cls-4" x="329.65" y="0">T</tspan><tspan class="cls-5" x="341.03" y="0">W</tspan><tspan x="362.53" y="0">ARE</tspan></text></g></g></svg>