<svg xmlns="http://www.w3.org/2000/svg" xmlns:xlink="http://www.w3.org/1999/xlink" viewBox="0 0 13066.86 8900.68"><defs><style>.cls-1,.cls-15,.cls-23{fill:#f69d12;}.cls-2{fill:#fff;}.cls-14,.cls-22,.cls-3{fill:#fc6e61;}.cls-13,.cls-21,.cls-4{fill:#9f1c6d;}.cls-34,.cls-41,.cls-5{fill:#faaf29;}.cls-33,.cls-40,.cls-6{fill:#f1002d;}.cls-32,.cls-39,.cls-7{fill:#004358;}.cls-8{fill:#079db7;}.cls-9{fill:url(#Degradado_sin_nombre_26);}.cls-10{fill:url(#Degradado_sin_nombre_28);}.cls-11{fill:url(#Degradado_sin_nombre_30);}.cls-12{fill:url(#Degradado_sin_nombre_21);}.cls-13,.cls-32{font-size:457px;}.cls-13,.cls-21,.cls-25,.cls-32,.cls-39{font-family:Neon80s, "Neon 80s";}.cls-14,.cls-33{letter-spacing:0.02em;}.cls-15,.cls-34{letter-spacing:-0.18em;}.cls-16{letter-spacing:0em;}.cls-16,.cls-24{fill:#000;}.cls-17{fill:url(#Degradado_sin_nombre_26-2);}.cls-18{fill:url(#Degradado_sin_nombre_28-2);}.cls-19{fill:url(#Degradado_sin_nombre_30-2);}.cls-20{fill:url(#Degradado_sin_nombre_21-2);}.cls-21{font-size:817.16px;}.cls-22{letter-spacing:0.02em;}.cls-23{letter-spacing:-0.18em;}.cls-25{font-size:344px;fill:gray;}.cls-26{fill:#93d039;}.cls-27{fill:#62a6c4;}.cls-28{fill:url(#Degradado_sin_nombre_9);}.cls-29{fill:url(#Degradado_sin_nombre_12);}.cls-30{fill:url(#Degradado_sin_nombre_31);}.cls-31{fill:url(#Degradado_sin_nombre_6);}.cls-35{fill:url(#Degradado_sin_nombre_9-2);}.cls-36{fill:url(#Degradado_sin_nombre_12-2);}.cls-37{fill:url(#Degradado_sin_nombre_31-2);}.cls-38{fill:url(#Degradado_sin_nombre_6-2);}.cls-39{font-size:870.9px;}.cls-40{letter-spacing:0.02em;}.cls-41{letter-spacing:-0.18em;}.cls-42{fill:#e1dee1;}.cls-43,.cls-52{stroke:#8c8c8c;stroke-miterlimit:10;}.cls-43{fill:url(#Degradado_sin_nombre_35);}.cls-44{fill:url(#Degradado_sin_nombre_26-3);}.cls-45{fill:url(#Degradado_sin_nombre_28-3);}.cls-46{fill:url(#Degradado_sin_nombre_30-3);}.cls-47{fill:url(#Degradado_sin_nombre_21-3);}.cls-48{fill:url(#Degradado_sin_nombre_26-4);}.cls-49{fill:url(#Degradado_sin_nombre_28-4);}.cls-50{fill:url(#Degradado_sin_nombre_30-4);}.cls-51{fill:url(#Degradado_sin_nombre_21-4);}.cls-52{fill:url(#Degradado_sin_nombre_35-2);}.cls-53{fill:url(#Degradado_sin_nombre_9-3);}.cls-54{fill:url(#Degradado_sin_nombre_12-3);}.cls-55{fill:url(#Degradado_sin_nombre_31-3);}.cls-56{fill:url(#Degradado_sin_nombre_6-3);}.cls-57{fill:url(#Degradado_sin_nombre_9-4);}.cls-58{fill:url(#Degradado_sin_nombre_12-4);}.cls-59{fill:url(#Degradado_sin_nombre_31-4);}.cls-60{fill:url(#Degradado_sin_nombre_6-4);}</style><linearGradient id="Degradado_sin_nombre_26" x1="7642.81" y1="5027.8" x2="8031.83" y2="5027.8" gradientTransform="translate(1.73 -3.49) rotate(0.03)" gradientUnits="userSpaceOnUse"><stop offset="0" stop-color="#fc6e61"/><stop offset="0.32" stop-color="#fc6b61"/><stop offset="0.6" stop-color="#fc6061"/><stop offset="0.86" stop-color="#fc4e61"/><stop offset="1" stop-color="#fc4161"/></linearGradient><linearGradient id="Degradado_sin_nombre_28" x1="7913.45" y1="5142.05" x2="8641.57" y2="5142.05" gradientUnits="userSpaceOnUse"><stop offset="0" stop-color="#f69d12"/><stop offset="0.27" stop-color="#f69a13"/><stop offset="0.5" stop-color="#f58f16"/><stop offset="0.72" stop-color="#f47d1b"/><stop offset="0.93" stop-color="#f26421"/><stop offset="1" stop-color="#f15a24"/></linearGradient><linearGradient id="Degradado_sin_nombre_30" x1="8129.36" y1="5784.8" x2="8709.86" y2="5784.8" gradientUnits="userSpaceOnUse"><stop offset="0" stop-color="#93d039"/><stop offset="0.28" stop-color="#90cf3a"/><stop offset="0.48" stop-color="#87cc3b"/><stop offset="0.65" stop-color="#78c83e"/><stop offset="0.8" stop-color="#62c142"/><stop offset="0.94" stop-color="#46b948"/><stop offset="1" stop-color="#39b54a"/></linearGradient><linearGradient id="Degradado_sin_nombre_21" x1="7056.86" y1="5288.45" x2="7555.12" y2="5288.45" gradientUnits="userSpaceOnUse"><stop offset="0" stop-color="#1b1464"/><stop offset="0.14" stop-color="#3e1666"/><stop offset="0.31" stop-color="#611869"/><stop offset="0.48" stop-color="#7c1a6b"/><stop offset="0.65" stop-color="#901b6c"/><stop offset="0.82" stop-color="#9b1c6d"/><stop offset="1" stop-color="#9f1c6d"/></linearGradient><linearGradient id="Degradado_sin_nombre_26-2" x1="10848.65" y1="775.78" x2="11576.3" y2="775.78" xlink:href="#Degradado_sin_nombre_26"/><linearGradient id="Degradado_sin_nombre_28-2" x1="11357.3" y1="981.56" x2="12719.21" y2="981.56" xlink:href="#Degradado_sin_nombre_28"/><linearGradient id="Degradado_sin_nombre_30-2" x1="11761.13" y1="2130.86" x2="12846.93" y2="2130.86" xlink:href="#Degradado_sin_nombre_30"/><linearGradient id="Degradado_sin_nombre_21-2" x1="9755.08" y1="1243.35" x2="10687.05" y2="1243.35" xlink:href="#Degradado_sin_nombre_21"/><linearGradient id="Degradado_sin_nombre_9" x1="5318.91" y1="5032.06" x2="5711.35" y2="5032.06" gradientUnits="userSpaceOnUse"><stop offset="0" stop-color="#f1002d"/><stop offset="0.16" stop-color="#f40f2d"/><stop offset="0.48" stop-color="#fa2a2d"/><stop offset="0.77" stop-color="#fe392d"/><stop offset="1" stop-color="#ff3f2d"/></linearGradient><linearGradient id="Degradado_sin_nombre_12" x1="5592.49" y1="5141.97" x2="6326.97" y2="5141.97" gradientUnits="userSpaceOnUse"><stop offset="0" stop-color="#faaf29"/><stop offset="0.29" stop-color="#faa929"/><stop offset="0.67" stop-color="#fa9929"/><stop offset="1" stop-color="#fa8529"/></linearGradient><linearGradient id="Degradado_sin_nombre_31" x1="5810.28" y1="5760.67" x2="6395.86" y2="5760.67" gradientUnits="userSpaceOnUse"><stop offset="0" stop-color="#e1dee1"/><stop offset="0.33" stop-color="#dedbde"/><stop offset="0.6" stop-color="#d4d2d4"/><stop offset="0.84" stop-color="#c3c2c3"/><stop offset="1" stop-color="#b3b3b3"/></linearGradient><linearGradient id="Degradado_sin_nombre_6" x1="4742.85" y1="5305.68" x2="5245.46" y2="5305.68" gradientUnits="userSpaceOnUse"><stop offset="0" stop-color="#62a6c4"/><stop offset="0.13" stop-color="#5396b3"/><stop offset="0.53" stop-color="#266982"/><stop offset="0.83" stop-color="#0a4d63"/><stop offset="1" stop-color="#004358"/></linearGradient><linearGradient id="Degradado_sin_nombre_9-2" x1="10800.26" y1="5500.04" x2="11554.74" y2="5500.04" xlink:href="#Degradado_sin_nombre_9"/><linearGradient id="Degradado_sin_nombre_12-2" x1="11326.24" y1="5709.49" x2="12738.32" y2="5709.49" xlink:href="#Degradado_sin_nombre_12"/><linearGradient id="Degradado_sin_nombre_31-2" x1="11744.95" y1="6888.56" x2="12870.76" y2="6888.56" xlink:href="#Degradado_sin_nombre_31"/><linearGradient id="Degradado_sin_nombre_6-2" x1="9692.74" y1="6021.48" x2="10659.04" y2="6021.48" xlink:href="#Degradado_sin_nombre_6"/><linearGradient id="Degradado_sin_nombre_35" x1="3808.06" y1="3474.31" x2="3813.82" y2="4335.43" gradientUnits="userSpaceOnUse"><stop offset="0" stop-color="#e6e6e6"/><stop offset="0.03" stop-color="#eaeaea"/><stop offset="0.18" stop-color="#f6f6f6"/><stop offset="0.37" stop-color="#fdfdfd"/><stop offset="0.89" stop-color="#fff"/></linearGradient><linearGradient id="Degradado_sin_nombre_26-3" x1="3691.38" y1="3718.63" x2="3886.12" y2="3718.63" xlink:href="#Degradado_sin_nombre_26"/><linearGradient id="Degradado_sin_nombre_28-3" x1="3827.18" y1="3774.12" x2="4191.67" y2="3774.12" xlink:href="#Degradado_sin_nombre_28"/><linearGradient id="Degradado_sin_nombre_30-3" x1="3935.26" y1="4096.44" x2="4225.86" y2="4096.44" xlink:href="#Degradado_sin_nombre_30"/><linearGradient id="Degradado_sin_nombre_21-3" x1="3398.37" y1="3847.54" x2="3647.79" y2="3847.54" xlink:href="#Degradado_sin_nombre_21"/><linearGradient id="Degradado_sin_nombre_26-4" x1="3661.03" y1="2695.83" x2="3876.29" y2="2695.83" xlink:href="#Degradado_sin_nombre_26"/><linearGradient id="Degradado_sin_nombre_28-4" x1="3811.59" y1="2752.32" x2="4214.48" y2="2752.32" xlink:href="#Degradado_sin_nombre_28"/><linearGradient id="Degradado_sin_nombre_30-4" x1="3931.06" y1="3080.35" x2="4252.26" y2="3080.35" xlink:href="#Degradado_sin_nombre_30"/><linearGradient id="Degradado_sin_nombre_21-4" x1="3337.62" y1="2827.04" x2="3613.32" y2="2827.04" xlink:href="#Degradado_sin_nombre_21"/><linearGradient id="Degradado_sin_nombre_35-2" x1="2711.06" y1="3468.31" x2="2716.82" y2="4329.43" xlink:href="#Degradado_sin_nombre_35"/><linearGradient id="Degradado_sin_nombre_9-3" x1="2585.04" y1="3717.54" x2="2784.66" y2="3717.54" xlink:href="#Degradado_sin_nombre_9"/><linearGradient id="Degradado_sin_nombre_12-3" x1="2724.2" y1="3772.03" x2="3097.82" y2="3772.03" xlink:href="#Degradado_sin_nombre_12"/><linearGradient id="Degradado_sin_nombre_31-3" x1="2834.99" y1="4078.79" x2="3132.86" y2="4078.79" xlink:href="#Degradado_sin_nombre_31"/><linearGradient id="Degradado_sin_nombre_6-3" x1="2292.01" y1="3853.2" x2="2547.68" y2="3853.2" xlink:href="#Degradado_sin_nombre_6"/><linearGradient id="Degradado_sin_nombre_9-4" x1="2575.21" y1="2665.37" x2="2790.47" y2="2665.37" xlink:href="#Degradado_sin_nombre_9"/><linearGradient id="Degradado_sin_nombre_12-4" x1="2725.27" y1="2723.64" x2="3128.16" y2="2723.64" xlink:href="#Degradado_sin_nombre_12"/><linearGradient id="Degradado_sin_nombre_31-4" x1="2844.74" y1="3051.67" x2="3165.94" y2="3051.67" xlink:href="#Degradado_sin_nombre_31"/><linearGradient id="Degradado_sin_nombre_6-4" x1="2259.22" y1="2810.44" x2="2534.92" y2="2810.44" xlink:href="#Degradado_sin_nombre_6"/></defs><title>Todo</title><g id="Capa_2" data-name="Capa 2"><g id="Paleta_2_Amarillo" data-name="Paleta 2 Amarillo"><rect class="cls-1" x="3297.86" y="6472.11" width="1019" height="931"/><path class="cls-2" d="M3489,7102.44c-13,8.31,2.63,74.72,41,126,64,85.55,181,115.34,196,95,1.75-2.38.5-14.25-2-38-2.24-21.21-3.41-32-6-39-4.28-11.58-12.09-21-40-41-26.49-19-50.26-32.47-72-44-39-20.65-38-17.24-68-34C3501.93,7107.33,3494.38,7099,3489,7102.44Z"/><path class="cls-2" d="M3640,7056.44a72.8,72.8,0,0,1,0,14h0c.68,10.55-.68,21-7.5,26.5-14.75,11.91-35.23-15.15-86.5-21.5-26.73-3.31-57.92-.51-75-19-1.64-1.77-3.08-3.64-3.19-3.81-4.58-6.79-6.16-17.16-11.81-49.19-3.89-22-8.82-43.86-12-66-7.56-52.51-11.36-78.95-28-105-23.3-36.47-55.08-46.07-51-67,1.93-9.89,10.66-16.09,19-22,24.76-17.55,53.62-12.79,58-12,.86.16,1.87.36,3.05.66,30.75,7.8,54.93,38.55,60.95,46.34,35.5,46,54,78.55,64.5,89.5,0,0,2.41,2.52,2,3-.74.87-9.88-9.57-23-12-1.79-.33-15.08-2.6-22,5-5,5.5-4.33,13.59-4,17,3.08,31.59,50,81.72,55,87C3578.48,6967.94,3636.89,7028,3640,7056.44Z"/><path class="cls-2" d="M3605,6886.44c2.4-9.56,13.92-7.47,28.5-21.5,21.89-21.07,22.91-51.79,27-51,2,.39,1.08,7.32,4,21a143.61,143.61,0,0,0,6,20c7.25,20.47,13.31,41.35,20,62,15.69,48.45,23.54,72.68,18,76-5.81,3.49-17.91-16.26-61.5-56.5C3618.41,6910.08,3601.94,6898.54,3605,6886.44Z"/><path class="cls-2" d="M3683.93,6787.44c3.39,4.3,10.63,1.3,19.92,7,8,4.93,11.57,12.68,13.93,18,19,42.83,24.82,65.76,41.82,102,31.69,67.58,34.83,74.87,36.55,75a.79.79,0,0,0,.28,0c4.25-.76,5.16-13.93,5.48-18.5,2.66-38.25-22.9-122-22.9-122-5.37-17.6-7-22.43-8.46-26.5s-2.3-5.28-3-8.15c-.26-1.06-.36-1.76-.47-2.35a49.56,49.56,0,0,0-4.48-12.5c-2.91-6.06-4.33-23.22,5.48-33.5,5.62-5.88,15.53-9.35,23.89-7,11.22,3.16,15.35,15.72,20.53,14,2.32-.76,3-3.53,5-9,2.76-7.56,7-14.51,10-22,1.66-4.2,2.81-6.65,18-37,9.67-19.32,18.85-38.91,29-58,10.94-20.56,16.2-29.1,20-45,3.06-12.83,5.52-23.82,0-35-6.07-12.28-19.2-19.53-31-21-18-2.22-31.85,9.1-44,19-11.49,9.36-18.65,18.79-32,39-15,22.69-23.86,38.23-33,53-18.3,29.58-34.32,60.57-53.62,89.5C3691.83,6760,3678,6779.92,3683.93,6787.44Z"/><path class="cls-2" d="M3834,6816.44c1-2,1.85-2.56,13-11,1.85-1.39,18.42-14,21-16,5.53-4.29,8-7.44,27.5-35.5,14.29-20.58,18.1-26.31,27-39,3.28-4.67,11-15.7,20-28,6.27-8.59,18.85-25.78,35-46,21.9-27.41,33-41.21,42-46,1.53-.81,38.76-20.08,59-2,11,9.86,12.72,27,11,38-.3,1.93-1.17,6.58-10,23-7.57,14.06-13.72,23.26-22,36-14.33,22-11.33,18.21-23,36-14.4,22-17.81,25.69-27,40-.82,1.27-17.87,27.93-31,52-17.75,32.55-55.75,102.23-40,116,12,10.54,51.15-15.44,58-20,18.46-12.26,24.54-22.11,50-47,12-11.76,23.52-22,46.5-42.5,58.12-51.83,81.15-66.75,105-68,5.31-.27,19.1-1,29,8,7.75,7.05,9.42,16.69,10,20,4.75,27.39-27.33,61.65-46,82-59.07,64.39-102.92,119.35-112.5,112.5-3.89-2.78.38-13.94-7-19-4.41-3-10.2-1.95-15-1a53,53,0,0,0-23,11c-27.36,23.29-56.55,95.55-84.5,96.5-15.7.54-28.49-21.64-45-49-8.58-14.2-14.39-30.47-26-63-1.26-3.52-8.17-25-22-68-3.1-9.63-5.44-19.52-9-29C3836.58,6835.09,3829.44,6825.55,3834,6816.44Z"/><path class="cls-2" d="M3953,7239.44c8.58,10.32,54.86-37,145-60,100.11-25.54,109-27,109-27,22-3.61,49.73-7,61-27,1.17-2.07,8-14.75,4-29-3.79-13.36-15-20.47-19-23-29.4-18.61-62.15,7.67-125,11-56.33,3-69.68-16-93.5-.5-19.34,12.58-15.2,28.12-41.5,80.5C3967.35,7215.49,3947.38,7232.71,3953,7239.44Z"/></g><g id="Paleta_2_Rosado" data-name="Paleta 2 Rosado"><rect class="cls-3" x="3297.86" y="5450.11" width="1019" height="931"/><path class="cls-2" d="M3489,6080.44c-13,8.31,2.63,74.72,41,126,64,85.55,181,115.34,196,95,1.75-2.38.5-14.25-2-38-2.24-21.21-3.41-32-6-39-4.28-11.58-12.09-21-40-41-26.49-19-50.26-32.47-72-44-39-20.65-38-17.24-68-34C3501.93,6085.33,3494.38,6077,3489,6080.44Z"/><path class="cls-2" d="M3640,6034.44a72.8,72.8,0,0,1,0,14h0c.68,10.55-.68,21-7.5,26.5-14.75,11.91-35.23-15.15-86.5-21.5-26.73-3.31-57.92-.51-75-19-1.64-1.77-3.08-3.64-3.19-3.81-4.58-6.79-6.16-17.16-11.81-49.19-3.89-22-8.82-43.86-12-66-7.56-52.51-11.36-78.95-28-105-23.3-36.47-55.08-46.07-51-67,1.93-9.89,10.66-16.09,19-22,24.76-17.55,53.62-12.79,58-12,.86.16,1.87.36,3.05.66,30.75,7.8,54.93,38.55,60.95,46.34,35.5,46,54,78.55,64.5,89.5,0,0,2.41,2.52,2,3-.74.87-9.88-9.57-23-12-1.79-.33-15.08-2.6-22,5-5,5.5-4.33,13.59-4,17,3.08,31.59,50,81.72,55,87C3578.48,5945.94,3636.89,6006,3640,6034.44Z"/><path class="cls-2" d="M3605,5864.44c2.4-9.56,13.92-7.47,28.5-21.5,21.89-21.07,22.91-51.79,27-51,2,.39,1.08,7.32,4,21a143.61,143.61,0,0,0,6,20c7.25,20.47,13.31,41.35,20,62,15.69,48.45,23.54,72.68,18,76-5.81,3.49-17.91-16.26-61.5-56.5C3618.41,5888.08,3601.94,5876.54,3605,5864.44Z"/><path class="cls-2" d="M3683.93,5765.44c3.39,4.3,10.63,1.3,19.92,7,8,4.93,11.57,12.68,13.93,18,19,42.83,24.82,65.76,41.82,102,31.69,67.58,34.83,74.87,36.55,75a.79.79,0,0,0,.28,0c4.25-.76,5.16-13.93,5.48-18.5,2.66-38.25-22.9-122-22.9-122-5.37-17.6-7-22.43-8.46-26.5s-2.3-5.28-3-8.15c-.26-1.06-.36-1.76-.47-2.35a49.56,49.56,0,0,0-4.48-12.5c-2.91-6.06-4.33-23.22,5.48-33.5,5.62-5.88,15.53-9.35,23.89-7,11.22,3.16,15.35,15.72,20.53,14,2.32-.76,3-3.53,5-9,2.76-7.56,7-14.51,10-22,1.66-4.2,2.81-6.65,18-37,9.67-19.32,18.85-38.91,29-58,10.94-20.56,16.2-29.1,20-45,3.06-12.83,5.52-23.82,0-35-6.07-12.28-19.2-19.53-31-21-18-2.22-31.85,9.1-44,19-11.49,9.36-18.65,18.79-32,39-15,22.69-23.86,38.23-33,53-18.3,29.58-34.32,60.57-53.62,89.5C3691.83,5738,3678,5757.92,3683.93,5765.44Z"/><path class="cls-2" d="M3834,5794.44c1-2,1.85-2.56,13-11,1.85-1.39,18.42-14,21-16,5.53-4.29,8-7.44,27.5-35.5,14.29-20.58,18.1-26.31,27-39,3.28-4.67,11-15.7,20-28,6.27-8.59,18.85-25.78,35-46,21.9-27.41,33-41.21,42-46,1.53-.81,38.76-20.08,59-2,11,9.86,12.72,27,11,38-.3,1.93-1.17,6.58-10,23-7.57,14.06-13.72,23.26-22,36-14.33,22-11.33,18.21-23,36-14.4,22-17.81,25.69-27,40-.82,1.27-17.87,27.93-31,52-17.75,32.55-55.75,102.23-40,116,12,10.54,51.15-15.44,58-20,18.46-12.26,24.54-22.11,50-47,12-11.76,23.52-22,46.5-42.5,58.12-51.83,81.15-66.75,105-68,5.31-.27,19.1-1,29,8,7.75,7.05,9.42,16.69,10,20,4.75,27.39-27.33,61.65-46,82-59.07,64.39-102.92,119.35-112.5,112.5-3.89-2.78.38-13.94-7-19-4.41-3-10.2-1.95-15-1a53,53,0,0,0-23,11c-27.36,23.29-56.55,95.55-84.5,96.5-15.7.54-28.49-21.64-45-49-8.58-14.2-14.39-30.47-26-63-1.26-3.52-8.17-25-22-68-3.1-9.63-5.44-19.52-9-29C3836.58,5813.09,3829.44,5803.55,3834,5794.44Z"/><path class="cls-2" d="M3953,6217.44c8.58,10.32,54.86-37,145-60,100.11-25.54,109-27,109-27,22-3.61,49.73-7,61-27,1.17-2.07,8-14.75,4-29-3.79-13.36-15-20.47-19-23-29.4-18.61-62.15,7.67-125,11-56.33,3-69.68-16-93.5-.5-19.34,12.58-15.2,28.12-41.5,80.5C3967.35,6193.49,3947.38,6210.71,3953,6217.44Z"/></g><g id="Paleta_2_Morado" data-name="Paleta 2 Morado"><rect class="cls-4" x="3297.86" y="4457.11" width="1019" height="931"/><path class="cls-2" d="M3488,5087.44c-13,8.31,2.63,74.72,41,126,64,85.55,181,115.34,196,95,1.75-2.38.5-14.25-2-38-2.24-21.21-3.41-32-6-39-4.28-11.58-12.09-21-40-41-26.49-19-50.26-32.47-72-44-39-20.65-38-17.24-68-34C3500.93,5092.33,3493.38,5084,3488,5087.44Z"/><path class="cls-2" d="M3639,5041.44a72.8,72.8,0,0,1,0,14h0c.68,10.55-.68,21-7.5,26.5-14.75,11.91-35.23-15.15-86.5-21.5-26.73-3.31-57.92-.51-75-19-1.64-1.77-3.08-3.64-3.19-3.81-4.58-6.79-6.16-17.16-11.81-49.19-3.89-22-8.82-43.86-12-66-7.56-52.51-11.36-78.95-28-105-23.3-36.47-55.08-46.07-51-67,1.93-9.89,10.66-16.09,19-22,24.76-17.55,53.62-12.79,58-12,.86.16,1.87.36,3.05.66,30.75,7.8,54.93,38.55,60.95,46.34,35.5,46,54,78.55,64.5,89.5,0,0,2.41,2.52,2,3-.74.87-9.88-9.57-23-12-1.79-.33-15.08-2.6-22,5-5,5.5-4.33,13.59-4,17,3.08,31.59,50,81.72,55,87C3577.48,4952.94,3635.89,5013,3639,5041.44Z"/><path class="cls-2" d="M3604,4871.44c2.4-9.56,13.92-7.47,28.5-21.5,21.89-21.07,22.91-51.79,27-51,2,.39,1.08,7.32,4,21a143.61,143.61,0,0,0,6,20c7.25,20.47,13.31,41.35,20,62,15.69,48.45,23.54,72.68,18,76-5.81,3.49-17.91-16.26-61.5-56.5C3617.41,4895.08,3600.94,4883.54,3604,4871.44Z"/><path class="cls-2" d="M3682.93,4772.44c3.39,4.3,10.63,1.3,19.92,7,8,4.93,11.57,12.68,13.93,18,19,42.83,24.82,65.76,41.82,102,31.69,67.58,34.83,74.87,36.55,75a.79.79,0,0,0,.28,0c4.25-.76,5.16-13.93,5.48-18.5,2.66-38.25-22.9-122-22.9-122-5.37-17.6-7-22.43-8.46-26.5s-2.3-5.28-3-8.15c-.26-1.06-.36-1.76-.47-2.35a49.56,49.56,0,0,0-4.48-12.5c-2.91-6.06-4.33-23.22,5.48-33.5,5.62-5.88,15.53-9.35,23.89-7,11.22,3.16,15.35,15.72,20.53,14,2.32-.76,3-3.53,5-9,2.76-7.56,7-14.51,10-22,1.66-4.2,2.81-6.65,18-37,9.67-19.32,18.85-38.91,29-58,10.94-20.56,16.2-29.1,20-45,3.06-12.83,5.52-23.82,0-35-6.07-12.28-19.2-19.53-31-21-18-2.22-31.85,9.1-44,19-11.49,9.36-18.65,18.79-32,39-15,22.69-23.86,38.23-33,53-18.3,29.58-34.32,60.57-53.62,89.5C3690.83,4745,3677,4764.92,3682.93,4772.44Z"/><path class="cls-2" d="M3833,4801.44c1-2,1.85-2.56,13-11,1.85-1.39,18.42-14,21-16,5.53-4.29,8-7.44,27.5-35.5,14.29-20.58,18.1-26.31,27-39,3.28-4.67,11-15.7,20-28,6.27-8.59,18.85-25.78,35-46,21.9-27.41,33-41.21,42-46,1.53-.81,38.76-20.08,59-2,11,9.86,12.72,27,11,38-.3,1.93-1.17,6.58-10,23-7.57,14.06-13.72,23.26-22,36-14.33,22-11.33,18.21-23,36-14.4,22-17.81,25.69-27,40-.82,1.27-17.87,27.93-31,52-17.75,32.55-55.75,102.23-40,116,12,10.54,51.15-15.44,58-20,18.46-12.26,24.54-22.11,50-47,12-11.76,23.52-22,46.5-42.5,58.12-51.83,81.15-66.75,105-68,5.31-.27,19.1-1,29,8,7.75,7.05,9.42,16.69,10,20,4.75,27.39-27.33,61.65-46,82-59.07,64.39-102.92,119.35-112.5,112.5-3.89-2.78.38-13.94-7-19-4.41-3-10.2-1.95-15-1a53,53,0,0,0-23,11c-27.36,23.29-56.55,95.55-84.5,96.5-15.7.54-28.49-21.64-45-49-8.58-14.2-14.39-30.47-26-63-1.26-3.52-8.17-25-22-68-3.1-9.63-5.44-19.52-9-29C3835.58,4820.09,3828.44,4810.55,3833,4801.44Z"/><path class="cls-2" d="M3952,5224.44c8.58,10.32,54.86-37,145-60,100.11-25.54,109-27,109-27,22-3.61,49.73-7,61-27,1.17-2.07,8-14.75,4-29-3.79-13.36-15-20.47-19-23-29.4-18.61-62.15,7.67-125,11-56.33,3-69.68-16-93.5-.5-19.34,12.58-15.2,28.12-41.5,80.5C3966.35,5200.49,3946.38,5217.71,3952,5224.44Z"/></g><g id="Paleta_1_Amarillo" data-name="Paleta 1 Amarillo"><rect class="cls-5" x="2213.86" y="6470.11" width="1000" height="931"/><path class="cls-2" d="M2395,7100.44c-13,8.31,2.63,74.72,41,126,64,85.55,181,115.34,196,95,1.75-2.38.5-14.25-2-38-2.24-21.21-3.41-32-6-39-4.28-11.58-12.09-21-40-41-26.49-19-50.26-32.47-72-44-39-20.65-38-17.24-68-34C2407.93,7105.33,2400.38,7097,2395,7100.44Z"/><path class="cls-2" d="M2546,7054.44a72.8,72.8,0,0,1,0,14h0c.68,10.55-.68,21-7.5,26.5-14.75,11.91-35.23-15.15-86.5-21.5-26.73-3.31-57.92-.51-75-19-1.64-1.77-3.08-3.64-3.19-3.81-4.58-6.79-6.16-17.16-11.81-49.19-3.89-22-8.82-43.86-12-66-7.56-52.51-11.36-78.95-28-105-23.3-36.47-55.08-46.07-51-67,1.93-9.89,10.66-16.09,19-22,24.76-17.55,53.62-12.79,58-12,.86.16,1.87.36,3.05.66,30.75,7.8,54.93,38.55,60.95,46.34,35.5,46,54,78.55,64.5,89.5,0,0,2.41,2.52,2,3-.74.87-9.88-9.57-23-12-1.79-.33-15.08-2.6-22,5-5,5.5-4.33,13.59-4,17,3.08,31.59,50,81.72,55,87C2484.48,6965.94,2542.89,7026,2546,7054.44Z"/><path class="cls-2" d="M2511,6884.44c2.4-9.56,13.92-7.47,28.5-21.5,21.89-21.07,22.91-51.79,27-51,2,.39,1.08,7.32,4,21a143.61,143.61,0,0,0,6,20c7.25,20.47,13.31,41.35,20,62,15.69,48.45,23.54,72.68,18,76-5.81,3.49-17.91-16.26-61.5-56.5C2524.41,6908.08,2507.94,6896.54,2511,6884.44Z"/><path class="cls-2" d="M2589.93,6785.44c3.39,4.3,10.63,1.3,19.92,7,8,4.93,11.57,12.68,13.93,18,19,42.83,24.82,65.76,41.82,102,31.69,67.58,34.83,74.87,36.55,75a.79.79,0,0,0,.28,0c4.25-.76,5.16-13.93,5.48-18.5,2.66-38.25-22.9-122-22.9-122-5.37-17.6-7-22.43-8.46-26.5s-2.3-5.28-3-8.15c-.26-1.06-.36-1.76-.47-2.35a49.56,49.56,0,0,0-4.48-12.5c-2.91-6.06-4.33-23.22,5.48-33.5,5.62-5.88,15.53-9.35,23.89-7,11.22,3.16,15.35,15.72,20.53,14,2.32-.76,3-3.53,5-9,2.76-7.56,7-14.51,10-22,1.66-4.2,2.81-6.65,18-37,9.67-19.32,18.85-38.91,29-58,10.94-20.56,16.2-29.1,20-45,3.06-12.83,5.52-23.82,0-35-6.07-12.28-19.2-19.53-31-21-18-2.22-31.85,9.1-44,19-11.49,9.36-18.65,18.79-32,39-15,22.69-23.86,38.23-33,53-18.3,29.58-34.32,60.57-53.62,89.5C2597.83,6758,2584,6777.92,2589.93,6785.44Z"/><path class="cls-2" d="M2740,6814.44c1-2,1.85-2.56,13-11,1.85-1.39,18.42-14,21-16,5.53-4.29,8-7.44,27.5-35.5,14.29-20.58,18.1-26.31,27-39,3.28-4.67,11-15.7,20-28,6.27-8.59,18.85-25.78,35-46,21.9-27.41,33-41.21,42-46,1.53-.81,38.76-20.08,59-2,11,9.86,12.72,27,11,38-.3,1.93-1.17,6.58-10,23-7.57,14.06-13.72,23.26-22,36-14.33,22-11.33,18.21-23,36-14.4,22-17.81,25.69-27,40-.82,1.27-17.87,27.93-31,52-17.75,32.55-55.75,102.23-40,116,12,10.54,51.15-15.44,58-20,18.46-12.26,24.54-22.11,50-47,12-11.76,23.52-22,46.5-42.5,58.12-51.83,81.15-66.75,105-68,5.31-.27,19.1-1,29,8,7.75,7.05,9.42,16.69,10,20,4.75,27.39-27.33,61.65-46,82-59.07,64.39-102.92,119.35-112.5,112.5-3.89-2.78.38-13.94-7-19-4.41-3-10.2-1.95-15-1a53,53,0,0,0-23,11c-27.36,23.29-56.55,95.55-84.5,96.5-15.7.54-28.49-21.64-45-49-8.58-14.2-14.39-30.47-26-63-1.26-3.52-8.17-25-22-68-3.1-9.63-5.44-19.52-9-29C2742.58,6833.09,2735.44,6823.55,2740,6814.44Z"/><path class="cls-2" d="M2859,7237.44c8.58,10.32,54.86-37,145-60,100.11-25.54,109-27,109-27,22-3.61,49.73-7,61-27,1.17-2.07,8-14.75,4-29-3.79-13.36-15-20.47-19-23-29.4-18.61-62.15,7.67-125,11-56.33,3-69.68-16-93.5-.5-19.34,12.58-15.2,28.12-41.5,80.5C2873.35,7213.49,2853.38,7230.71,2859,7237.44Z"/></g><g id="Paleta_1_Rojo" data-name="Paleta 1 Rojo"><rect class="cls-6" x="2212.86" y="5450.11" width="1000" height="931"/><path class="cls-2" d="M2394,6080.44c-13,8.31,2.63,74.72,41,126,64,85.55,181,115.34,196,95,1.75-2.38.5-14.25-2-38-2.24-21.21-3.41-32-6-39-4.28-11.58-12.09-21-40-41-26.49-19-50.26-32.47-72-44-39-20.65-38-17.24-68-34C2406.93,6085.33,2399.38,6077,2394,6080.44Z"/><path class="cls-2" d="M2545,6034.44a72.8,72.8,0,0,1,0,14h0c.68,10.55-.68,21-7.5,26.5-14.75,11.91-35.23-15.15-86.5-21.5-26.73-3.31-57.92-.51-75-19-1.64-1.77-3.08-3.64-3.19-3.81-4.58-6.79-6.16-17.16-11.81-49.19-3.89-22-8.82-43.86-12-66-7.56-52.51-11.36-78.95-28-105-23.3-36.47-55.08-46.07-51-67,1.93-9.89,10.66-16.09,19-22,24.76-17.55,53.62-12.79,58-12,.86.16,1.87.36,3.05.66,30.75,7.8,54.93,38.55,60.95,46.34,35.5,46,54,78.55,64.5,89.5,0,0,2.41,2.52,2,3-.74.87-9.88-9.57-23-12-1.79-.33-15.08-2.6-22,5-5,5.5-4.33,13.59-4,17,3.08,31.59,50,81.72,55,87C2483.48,5945.94,2541.89,6006,2545,6034.44Z"/><path class="cls-2" d="M2510,5864.44c2.4-9.56,13.92-7.47,28.5-21.5,21.89-21.07,22.91-51.79,27-51,2,.39,1.08,7.32,4,21a143.61,143.61,0,0,0,6,20c7.25,20.47,13.31,41.35,20,62,15.69,48.45,23.54,72.68,18,76-5.81,3.49-17.91-16.26-61.5-56.5C2523.41,5888.08,2506.94,5876.54,2510,5864.44Z"/><path class="cls-2" d="M2588.93,5765.44c3.39,4.3,10.63,1.3,19.92,7,8,4.93,11.57,12.68,13.93,18,19,42.83,24.82,65.76,41.82,102,31.69,67.58,34.83,74.87,36.55,75a.79.79,0,0,0,.28,0c4.25-.76,5.16-13.93,5.48-18.5,2.66-38.25-22.9-122-22.9-122-5.37-17.6-7-22.43-8.46-26.5s-2.3-5.28-3-8.15c-.26-1.06-.36-1.76-.47-2.35a49.56,49.56,0,0,0-4.48-12.5c-2.91-6.06-4.33-23.22,5.48-33.5,5.62-5.88,15.53-9.35,23.89-7,11.22,3.16,15.35,15.72,20.53,14,2.32-.76,3-3.53,5-9,2.76-7.56,7-14.51,10-22,1.66-4.2,2.81-6.65,18-37,9.67-19.32,18.85-38.91,29-58,10.94-20.56,16.2-29.1,20-45,3.06-12.83,5.52-23.82,0-35-6.07-12.28-19.2-19.53-31-21-18-2.22-31.85,9.1-44,19-11.49,9.36-18.65,18.79-32,39-15,22.69-23.86,38.23-33,53-18.3,29.58-34.32,60.57-53.62,89.5C2596.83,5738,2583,5757.92,2588.93,5765.44Z"/><path class="cls-2" d="M2739,5794.44c1-2,1.85-2.56,13-11,1.85-1.39,18.42-14,21-16,5.53-4.29,8-7.44,27.5-35.5,14.29-20.58,18.1-26.31,27-39,3.28-4.67,11-15.7,20-28,6.27-8.59,18.85-25.78,35-46,21.9-27.41,33-41.21,42-46,1.53-.81,38.76-20.08,59-2,11,9.86,12.72,27,11,38-.3,1.93-1.17,6.58-10,23-7.57,14.06-13.72,23.26-22,36-14.33,22-11.33,18.21-23,36-14.4,22-17.81,25.69-27,40-.82,1.27-17.87,27.93-31,52-17.75,32.55-55.75,102.23-40,116,12,10.54,51.15-15.44,58-20,18.46-12.26,24.54-22.11,50-47,12-11.76,23.52-22,46.5-42.5,58.12-51.83,81.15-66.75,105-68,5.31-.27,19.1-1,29,8,7.75,7.05,9.42,16.69,10,20,4.75,27.39-27.33,61.65-46,82-59.07,64.39-102.92,119.35-112.5,112.5-3.89-2.78.38-13.94-7-19-4.41-3-10.2-1.95-15-1a53,53,0,0,0-23,11c-27.36,23.29-56.55,95.55-84.5,96.5-15.7.54-28.49-21.64-45-49-8.58-14.2-14.39-30.47-26-63-1.26-3.52-8.17-25-22-68-3.1-9.63-5.44-19.52-9-29C2741.58,5813.09,2734.44,5803.55,2739,5794.44Z"/><path class="cls-2" d="M2858,6217.44c8.58,10.32,54.86-37,145-60,100.11-25.54,109-27,109-27,22-3.61,49.73-7,61-27,1.17-2.07,8-14.75,4-29-3.79-13.36-15-20.47-19-23-29.4-18.61-62.15,7.67-125,11-56.33,3-69.68-16-93.5-.5-19.34,12.58-15.2,28.12-41.5,80.5C2872.35,6193.49,2852.38,6210.71,2858,6217.44Z"/></g><g id="Paleta_1_Azul" data-name="Paleta 1 Azul"><rect class="cls-7" x="2203.86" y="4469.11" width="1000" height="931"/><path class="cls-2" d="M2394,5087.44c-13,8.31,2.63,74.72,41,126,64,85.55,181,115.34,196,95,1.75-2.38.5-14.25-2-38-2.24-21.21-3.41-32-6-39-4.28-11.58-12.09-21-40-41-26.49-19-50.26-32.47-72-44-39-20.65-38-17.24-68-34C2406.93,5092.33,2399.38,5084,2394,5087.44Z"/><path class="cls-2" d="M2545,5041.44a72.8,72.8,0,0,1,0,14h0c.68,10.55-.68,21-7.5,26.5-14.75,11.91-35.23-15.15-86.5-21.5-26.73-3.31-57.92-.51-75-19-1.64-1.77-3.08-3.64-3.19-3.81-4.58-6.79-6.16-17.16-11.81-49.19-3.89-22-8.82-43.86-12-66-7.56-52.51-11.36-78.95-28-105-23.3-36.47-55.08-46.07-51-67,1.93-9.89,10.66-16.09,19-22,24.76-17.55,53.62-12.79,58-12,.86.16,1.87.36,3.05.66,30.75,7.8,54.93,38.55,60.95,46.34,35.5,46,54,78.55,64.5,89.5,0,0,2.41,2.52,2,3-.74.87-9.88-9.57-23-12-1.79-.33-15.08-2.6-22,5-5,5.5-4.33,13.59-4,17,3.08,31.59,50,81.72,55,87C2483.48,4952.94,2541.89,5013,2545,5041.44Z"/><path class="cls-2" d="M2510,4871.44c2.4-9.56,13.92-7.47,28.5-21.5,21.89-21.07,22.91-51.79,27-51,2,.39,1.08,7.32,4,21a143.61,143.61,0,0,0,6,20c7.25,20.47,13.31,41.35,20,62,15.69,48.45,23.54,72.68,18,76-5.81,3.49-17.91-16.26-61.5-56.5C2523.41,4895.08,2506.94,4883.54,2510,4871.44Z"/><path class="cls-2" d="M2588.93,4772.44c3.39,4.3,10.63,1.3,19.92,7,8,4.93,11.57,12.68,13.93,18,19,42.83,24.82,65.76,41.82,102,31.69,67.58,34.83,74.87,36.55,75a.79.79,0,0,0,.28,0c4.25-.76,5.16-13.93,5.48-18.5,2.66-38.25-22.9-122-22.9-122-5.37-17.6-7-22.43-8.46-26.5s-2.3-5.28-3-8.15c-.26-1.06-.36-1.76-.47-2.35a49.56,49.56,0,0,0-4.48-12.5c-2.91-6.06-4.33-23.22,5.48-33.5,5.62-5.88,15.53-9.35,23.89-7,11.22,3.16,15.35,15.72,20.53,14,2.32-.76,3-3.53,5-9,2.76-7.56,7-14.51,10-22,1.66-4.2,2.81-6.65,18-37,9.67-19.32,18.85-38.91,29-58,10.94-20.56,16.2-29.1,20-45,3.06-12.83,5.52-23.82,0-35-6.07-12.28-19.2-19.53-31-21-18-2.22-31.85,9.1-44,19-11.49,9.36-18.65,18.79-32,39-15,22.69-23.86,38.23-33,53-18.3,29.58-34.32,60.57-53.62,89.5C2596.83,4745,2583,4764.92,2588.93,4772.44Z"/><path class="cls-2" d="M2739,4801.44c1-2,1.85-2.56,13-11,1.85-1.39,18.42-14,21-16,5.53-4.29,8-7.44,27.5-35.5,14.29-20.58,18.1-26.31,27-39,3.28-4.67,11-15.7,20-28,6.27-8.59,18.85-25.78,35-46,21.9-27.41,33-41.21,42-46,1.53-.81,38.76-20.08,59-2,11,9.86,12.72,27,11,38-.3,1.93-1.17,6.58-10,23-7.57,14.06-13.72,23.26-22,36-14.33,22-11.33,18.21-23,36-14.4,22-17.81,25.69-27,40-.82,1.27-17.87,27.93-31,52-17.75,32.55-55.75,102.23-40,116,12,10.54,51.15-15.44,58-20,18.46-12.26,24.54-22.11,50-47,12-11.76,23.52-22,46.5-42.5,58.12-51.83,81.15-66.75,105-68,5.31-.27,19.1-1,29,8,7.75,7.05,9.42,16.69,10,20,4.75,27.39-27.33,61.65-46,82-59.07,64.39-102.92,119.35-112.5,112.5-3.89-2.78.38-13.94-7-19-4.41-3-10.2-1.95-15-1a53,53,0,0,0-23,11c-27.36,23.29-56.55,95.55-84.5,96.5-15.7.54-28.49-21.64-45-49-8.58-14.2-14.39-30.47-26-63-1.26-3.52-8.17-25-22-68-3.1-9.63-5.44-19.52-9-29C2741.58,4820.09,2734.44,4810.55,2739,4801.44Z"/><path class="cls-2" d="M2858,5224.44c8.58,10.32,54.86-37,145-60,100.11-25.54,109-27,109-27,22-3.61,49.73-7,61-27,1.17-2.07,8-14.75,4-29-3.79-13.36-15-20.47-19-23-29.4-18.61-62.15,7.67-125,11-56.33,3-69.68-16-93.5-.5-19.34,12.58-15.2,28.12-41.5,80.5C2872.35,5200.49,2852.38,5217.71,2858,5224.44Z"/></g><g id="Logo_Paleta_2" data-name="Logo Paleta 2"><path class="cls-8" d="M7292.5,5684c-23.53,16.27,4.75,146.39,74.1,246.89,115.67,167.63,327.17,226,354.22,186.15,3.16-4.67.9-27.93-3.62-74.46-4-41.57-6.15-62.64-10.84-76.42-7.73-22.71-21.85-41.16-72.29-80.34-47.87-37.18-90.83-63.63-130.12-86.22-70.43-40.48-68.64-33.79-122.9-66.62C7315.91,5693.61,7302.26,5677.29,7292.5,5684Z"/><path class="cls-3" d="M7502.14,5260.8c4.34-18.75,25.17-14.65,51.51-42.13,39.56-41.29,41.41-101.5,48.79-99.93,3.54.75,2,14.32,7.23,41.14,3.27,16.62,7.08,27.67,10.85,39.19,13.09,40.11,24,81,36.14,121.49,28.36,94.93,42.54,142.4,32.53,148.92-10.49,6.83-32.36-31.86-111.14-110.71C7526.42,5307.1,7496.65,5284.5,7502.14,5260.8Z"/><path class="cls-9" d="M7644.82,5066.72c6.11,8.42,19.2,2.54,36,13.73,14.48,9.66,20.91,24.85,25.17,35.28,34.31,83.93,44.8,128.88,75.49,199.9,57.21,132.43,62.89,146.74,66,147.06a1.47,1.47,0,0,0,.52-.07c7.66-1.49,9.33-27.28,9.91-36.24,4.85-75-41.28-239.07-41.28-239.07-9.7-34.49-12.67-44-15.28-51.94s-4.15-10.36-5.44-16c-.47-2.08-.66-3.44-.84-4.59-1.83-11.27-7.13-22.34-8.09-24.5-5.26-11.88-7.82-45.52,9.92-65.64,10.17-11.53,28.07-18.31,43.19-13.69,20.26,6.19,27.72,30.81,37.08,27.45,4.19-1.5,5.43-6.91,9-17.63,5-14.83,12.73-28.43,18.09-43.1,3-8.24,5.08-13,32.56-72.49,17.5-37.86,34.09-76.23,52.46-113.62,19.78-40.27,29.3-57,36.18-88.15,5.55-25.14,10-46.68,0-68.59-11-24.06-34.68-38.3-56-41.17-32.45-4.37-57.57,17.79-79.54,37.19-20.76,18.33-33.71,36.8-57.86,76.39-27.11,44.43-43.15,74.87-59.68,103.82-33.1,57.93-62.07,118.65-97,175.32C7659.1,5012.91,7634.11,5052,7644.82,5066.72Z"/><path class="cls-10" d="M7916,5123.63c1.81-3.93,3.35-5,23.5-21.55,3.34-2.74,33.29-27.43,37.95-31.35,10-8.41,14.51-14.59,49.7-69.56,25.82-40.34,32.71-51.57,48.79-76.42,5.93-9.15,19.94-30.78,36.15-54.86,11.34-16.85,34.07-50.54,63.25-90.14,39.59-53.71,59.71-80.76,75.91-90.13,2.76-1.6,70-39.36,106.63-3.92,19.94,19.31,23,52.86,19.88,74.46-.55,3.77-2.11,12.88-18.08,45.06-13.67,27.55-24.79,45.58-39.76,70.54-25.89,43.18-20.47,35.69-41.56,70.54-26,43-32.19,50.33-48.8,78.38-1.47,2.49-32.3,54.72-56,101.89-32.08,63.77-100.75,200.31-72.29,227.3,21.76,20.64,92.43-30.27,104.82-39.19,33.36-24,44.34-43.33,90.36-92.09,21.75-23.05,42.51-43.13,84-83.28,105-101.56,146.66-130.8,189.76-133.24,9.61-.55,34.52-2,52.41,15.67,14,13.8,17,32.7,18.07,39.19,8.6,53.66-49.39,120.79-83.13,160.68-106.75,126.16-186,233.85-203.32,220.43-7-5.44.7-27.31-12.65-37.22-8-5.92-18.43-3.83-27.11-2-23.27,5-39,19.15-41.56,21.55-49.44,45.62-102.21,187.22-152.72,189.09-28.36,1-51.47-42.41-81.32-96-15.5-27.84-26-59.7-47-123.44-2.28-6.9-14.76-49-39.76-133.24-5.61-18.88-9.83-38.26-16.27-56.83C7920.7,5160.16,7907.81,5141.48,7916,5123.63Z"/><path class="cls-11" d="M8131.07,5952.48c15.5,20.22,99.14-72.5,262.05-117.57,180.93-50,197-52.9,197-52.9,39.77-7.08,89.88-13.77,110.24-52.91,2.12-4.06,14.53-28.9,7.23-56.82-6.85-26.19-27.13-40.12-34.34-45.07-53.12-36.47-112.32,15-225.9,21.56-101.79,5.85-125.93-31.34-169-1-35,24.64-27.47,55.1-75,157.73C8157,5905.54,8121,5939.29,8131.07,5952.48Z"/><path class="cls-12" d="M7554.5,5565.41a154.79,154.79,0,0,1,0,27.43h0c1.23,20.67-1.22,41.13-13.56,51.93-26.64,23.34-63.66-29.69-156.32-42.13-48.3-6.48-104.67-1-135.55-37.23-3-3.48-5.55-7.14-5.76-7.47-8.27-13.3-11.13-33.63-21.35-96.38-7-43.15-15.93-86-21.68-129.32-13.66-102.91-20.53-154.7-50.61-205.75-42.11-71.46-99.55-90.28-92.17-131.28,3.49-19.39,19.28-31.53,34.34-43.11,44.75-34.4,96.9-25.06,104.82-23.51,1.56.31,3.39.69,5.52,1.28,55.56,15.29,99.28,75.55,110.15,90.81,64.15,90.1,97.65,153.91,116.56,175.37,0,0,4.36,4.94,3.62,5.88-1.34,1.7-17.85-18.76-41.57-23.51-3.22-.65-27.25-5.1-39.76,9.8-9.05,10.77-7.83,26.62-7.23,33.31,5.57,61.89,90.36,160.12,99.4,170.47C7443.35,5392,7548.92,5509.69,7554.5,5565.41Z"/><text class="cls-13" transform="translate(6871.54 6611.91)">T<tspan class="cls-14" x="268.22" y="0">E</tspan><tspan class="cls-15" x="537.78" y="0">A</tspan><tspan class="cls-16" x="814.48" y="0">yudo</tspan></text><path class="cls-8" d="M10195.84,1950.69c-44,29.1,8.88,261.78,138.59,441.47,216.37,299.74,612,404.1,662.56,332.85,5.92-8.34,1.69-49.94-6.76-133.14-7.56-74.33-11.51-112-20.29-136.64-14.45-40.61-40.87-73.61-135.21-143.66-89.54-66.48-169.89-113.77-243.39-154.16-131.73-72.38-128.38-60.43-229.86-119.12C10239.63,1967.81,10214.1,1938.62,10195.84,1950.69Z"/><path class="cls-3" d="M10588,1193.89c8.12-33.51,47.07-26.18,96.34-75.33,74-73.82,77.46-181.49,91.27-178.69,6.62,1.34,3.65,25.62,13.52,73.58,6.12,29.72,13.25,49.47,20.29,70.08,24.5,71.72,45,144.84,67.6,217.23,53.05,169.74,79.57,254.62,60.85,266.28-19.62,12.22-60.53-57-207.89-198C10633.38,1276.7,10577.7,1236.28,10588,1193.89Z"/><path class="cls-17" d="M10854.83,846.86c11.43,15.06,35.93,4.54,67.3,24.55,27.1,17.29,39.11,44.45,47.09,63.09,64.18,150.08,83.79,230.45,141.19,357.45,107,236.8,117.63,262.38,123.44,263a2.7,2.7,0,0,0,1-.12c14.34-2.67,17.46-48.79,18.54-64.81,9.07-134-77.21-427.48-77.21-427.48-18.14-61.68-23.7-78.63-28.57-92.87s-7.78-18.52-10.18-28.58c-.89-3.71-1.23-6.15-1.58-8.21-3.43-20.15-13.34-39.94-15.13-43.8-9.84-21.25-14.62-81.39,18.56-117.37,19-20.62,52.51-32.75,80.78-24.49,37.9,11.07,51.86,55.09,69.36,49.09,7.84-2.69,10.16-12.36,16.92-31.53,9.35-26.51,23.81-50.82,33.84-77.06,5.63-14.74,9.5-23.32,60.9-129.61,32.74-67.71,63.77-136.33,98.12-203.17,37-72,54.82-102,67.68-157.64,10.38-44.94,18.71-83.46,0-122.63-20.5-43-64.86-68.48-104.76-73.62-60.7-7.82-107.67,31.82-148.77,66.5-38.83,32.77-63.05,65.8-108.23,136.59-50.7,79.46-80.7,133.89-111.63,185.64-61.9,103.6-116.1,212.17-181.39,313.5C10881.55,750.65,10834.81,820.47,10854.83,846.86Z"/><path class="cls-18" d="M11362.07,948.63c3.37-7,6.26-9,43.94-38.54,6.25-4.9,62.27-49,71-56.06,18.7-15,27.15-26.09,93-124.38,48.3-72.13,61.19-92.21,91.27-136.64,11.08-16.37,37.29-55,67.61-98.11,21.21-30.12,63.73-90.35,118.31-161.17,74-96.05,111.68-144.41,142-161.17,5.17-2.86,131-70.37,199.44-7,37.3,34.55,43,94.53,37.18,133.15-1,6.75-3.93,23-33.8,80.58-25.57,49.25-46.37,81.49-74.37,126.13-48.43,77.21-38.3,63.81-77.75,126.14-48.68,76.92-60.21,90-91.27,140.15-2.75,4.44-60.41,97.83-104.79,182.19-60,114-188.43,358.16-135.21,406.43,40.7,36.91,172.9-54.13,196.06-70.08,62.4-43,82.95-77.47,169-164.67,40.68-41.22,79.52-77.11,157.19-148.91,196.45-181.59,274.32-233.89,354.93-238.25,18-1,64.57-3.49,98,28,26.19,24.68,31.85,58.46,33.8,70.07,16.08,96-92.38,216-155.5,287.31-199.66,225.59-347.9,418.16-380.29,394.16-13.15-9.73,1.31-48.85-23.66-66.57-14.92-10.58-34.47-6.84-50.71-3.5-43.53,8.95-72.89,34.25-77.75,38.54-92.46,81.58-191.16,334.77-285.64,338.11-53,1.87-96.28-75.82-152.12-171.68-29-49.78-48.62-106.77-87.89-220.74-4.25-12.34-27.6-87.65-74.36-238.25-10.49-33.76-18.39-68.41-30.43-101.61C11370.85,1014,11346.74,980.54,11362.07,948.63Z"/><path class="cls-19" d="M11764.33,2430.7c29,36.16,185.45-129.65,490.16-210.22,338.42-89.49,368.46-94.6,368.46-94.6,74.39-12.66,168.12-24.62,206.2-94.6,4-7.27,27.18-51.68,13.52-101.61-12.81-46.84-50.75-71.74-64.22-80.58-99.37-65.23-210.1,26.85-422.55,38.54-190.4,10.46-235.55-56-316.07-1.76-65.37,44.07-51.37,98.53-140.28,282.05C11812.91,2346.76,11745.42,2407.12,11764.33,2430.7Z"/><path class="cls-20" d="M10685.89,1738.58a264.67,264.67,0,0,1,0,49.05h0c2.32,36.95-2.27,73.53-25.35,92.85-49.84,41.73-119.07-53.08-292.4-75.33-90.34-11.6-195.78-1.8-253.53-66.57-5.55-6.23-10.39-12.78-10.77-13.35-15.48-23.8-20.83-60.14-39.94-172.35-13.13-77.15-29.8-153.7-40.56-231.24-25.54-184-38.4-276.62-94.65-367.89C9849.93,826,9742.49,792.32,9756.29,719c6.53-34.67,36.06-56.38,64.23-77.08,83.69-61.51,181.25-44.82,196.06-42,2.92.55,6.33,1.24,10.32,2.29,103.93,27.35,185.69,135.09,206,162.39,120,161.09,182.66,275.2,218,313.58,0,0,8.14,8.83,6.76,10.51-2.5,3-33.39-33.56-77.75-42.05-6-1.15-51-9.11-74.37,17.52-16.93,19.27-14.64,47.61-13.52,59.57,10.41,110.66,169,286.31,185.92,304.82C10478,1428.5,10675.47,1638.93,10685.89,1738.58Z"/><text class="cls-21" transform="translate(9408.46 3609.82) scale(1.05 1)">T<tspan class="cls-22" x="479.61" y="0">E</tspan><tspan class="cls-23" x="961.6" y="0">A</tspan><tspan class="cls-24" x="1456.37" y="0">yudo</tspan></text><text class="cls-25" transform="translate(11212.94 3891.37)">App Social</text><text class="cls-25" transform="translate(11326.64 8830.13)">App Social</text></g><g id="Logo_Paleta_2_Plain" data-name="Logo Paleta 2 Plain"><path class="cls-8" d="M7274.61,3259.85c-23.53,16.27,4.75,146.39,74.1,246.89,115.68,167.63,327.17,226,354.22,186.15,3.17-4.67.91-27.93-3.61-74.46-4-41.57-6.15-62.64-10.84-76.42-7.73-22.71-21.86-41.16-72.29-80.34-47.87-37.18-90.83-63.63-130.13-86.22-70.43-40.48-68.63-33.79-122.89-66.62C7298,3269.42,7284.38,3253.1,7274.61,3259.85Z"/><path class="cls-3" d="M7484.26,2836.61c4.34-18.75,25.16-14.65,51.5-42.13,39.57-41.29,41.41-101.5,48.8-99.93,3.54.75,1.95,14.32,7.23,41.14,3.27,16.62,7.08,27.67,10.84,39.19,13.1,40.11,24.05,81,36.15,121.49,28.36,94.93,42.53,142.4,32.53,148.92-10.49,6.83-32.36-31.87-111.15-110.71C7508.54,2882.91,7478.77,2860.31,7484.26,2836.61Z"/><path class="cls-3" d="M7626.93,2642.52c6.11,8.43,19.21,2.55,36,13.74,14.49,9.66,20.91,24.85,25.18,35.28,34.31,83.93,44.8,128.88,75.48,199.9,57.22,132.43,62.89,146.74,66,147.06a1.39,1.39,0,0,0,.51-.07c7.67-1.49,9.34-27.29,9.92-36.24,4.84-75-41.29-239.07-41.29-239.07-9.69-34.49-12.67-44-15.27-51.94s-4.16-10.36-5.44-16c-.48-2.08-.66-3.44-.85-4.59-1.83-11.27-7.13-22.34-8.08-24.5-5.26-11.88-7.82-45.52,9.92-65.64,10.17-11.53,28.07-18.31,43.19-13.69,20.26,6.19,27.72,30.8,37.08,27.45,4.19-1.5,5.43-6.92,9-17.63,5-14.83,12.73-28.43,18.09-43.1,3-8.25,5.09-13,32.56-72.49,17.51-37.86,34.1-76.24,52.46-113.62,19.79-40.27,29.31-57,36.18-88.16,5.55-25.13,10-46.68,0-68.58-11-24.06-34.67-38.3-56-41.17-32.45-4.37-57.56,17.79-79.53,37.19-20.76,18.33-33.71,36.8-57.86,76.39-27.11,44.43-43.15,74.87-59.69,103.82-33.09,57.93-62.07,118.65-97,175.32C7641.22,2588.72,7616.23,2627.77,7626.93,2642.52Z"/><path class="cls-1" d="M7898.12,2699.44c1.8-3.93,3.35-5,23.49-21.55,3.34-2.74,33.29-27.43,38-31.35,10-8.41,14.52-14.59,49.7-69.56,25.83-40.34,32.72-51.57,48.8-76.42,5.92-9.15,19.93-30.78,36.15-54.87,11.33-16.84,34.07-50.53,63.25-90.13,39.58-53.72,59.7-80.76,75.9-90.13,2.77-1.6,70-39.36,106.63-3.92,19.94,19.31,23,52.86,19.88,74.46-.54,3.77-2.1,12.88-18.07,45.06-13.67,27.55-24.79,45.58-39.76,70.54-25.89,43.18-20.48,35.69-41.57,70.54-26,43-32.19,50.33-48.79,78.38-1.47,2.49-32.3,54.72-56,101.89-32.07,63.77-100.74,200.31-72.29,227.3,21.76,20.64,92.44-30.27,104.82-39.19,33.36-24,44.35-43.33,90.37-92.09,21.75-23.05,42.51-43.13,84-83.28,105-101.56,146.66-130.8,189.77-133.24,9.6-.55,34.51-2,52.41,15.67,14,13.8,17,32.7,18.07,39.19,8.59,53.66-49.39,120.79-83.14,160.68-106.74,126.16-186,233.85-203.31,220.43-7-5.44.7-27.32-12.65-37.23-8-5.91-18.43-3.82-27.11-1.95-23.27,5-39,19.15-41.57,21.55-49.43,45.62-102.2,187.22-152.71,189.09-28.36,1-51.48-42.41-81.33-96-15.5-27.84-26-59.71-47-123.44-2.27-6.9-14.76-49-39.76-133.24-5.6-18.88-9.83-38.26-16.26-56.83C7902.81,2736,7889.92,2717.29,7898.12,2699.44Z"/><path class="cls-26" d="M8113.18,3528.29c15.51,20.22,99.15-72.5,262-117.57,180.93-50,197-52.9,197-52.9,39.78-7.08,89.89-13.77,110.25-52.91,2.11-4.06,14.53-28.9,7.23-56.82-6.85-26.2-27.14-40.12-34.34-45.07-53.13-36.47-112.32,15-225.91,21.56-101.79,5.85-125.93-31.34-169-1-34.95,24.64-27.46,55.1-75,157.73C8139.15,3481.35,8103.07,3515.1,8113.18,3528.29Z"/><path class="cls-4" d="M7536.61,3141.22a154.79,154.79,0,0,1,0,27.43h0c1.24,20.67-1.21,41.13-13.55,51.93-26.65,23.34-63.66-29.69-156.33-42.13-48.29-6.49-104.67-1-135.54-37.23-3-3.48-5.56-7.14-5.76-7.47-8.28-13.3-11.14-33.63-21.35-96.38-7-43.15-15.93-86-21.69-129.32-13.65-102.91-20.53-154.7-50.6-205.75-42.11-71.46-99.55-90.28-92.17-131.28,3.49-19.39,19.28-31.53,34.34-43.11,44.74-34.4,96.9-25.06,104.82-23.51,1.56.31,3.38.69,5.51,1.28,55.57,15.29,99.28,75.55,110.15,90.81,64.16,90.09,97.65,153.91,116.57,175.37,0,0,4.35,4.94,3.61,5.88-1.33,1.7-17.84-18.76-41.56-23.51-3.23-.65-27.25-5.1-39.76,9.8-9.05,10.77-7.83,26.62-7.23,33.31,5.56,61.89,90.36,160.12,99.4,170.47C7425.47,2967.81,7531,3085.5,7536.61,3141.22Z"/><text class="cls-13" transform="translate(6853.65 4187.72)">T<tspan class="cls-14" x="268.22" y="0">E</tspan><tspan class="cls-15" x="537.78" y="0">A</tspan><tspan class="cls-16" x="814.48" y="0">yudo</tspan></text></g><g id="Logo_Paleta_1" data-name="Logo Paleta 1"><path class="cls-27" d="M4966.11,5663.68c-23.74,15.67,4.79,140.93,74.74,237.66,116.69,161.36,330,217.54,357.32,179.19,3.2-4.49.92-26.89-3.64-71.68-4.08-40-6.21-60.29-10.94-73.56-7.8-21.86-22.05-39.62-72.92-77.33-48.29-35.79-91.62-61.25-131.26-83-71.05-39-69.24-32.54-124-64.13C4989.72,5672.9,4976,5657.19,4966.11,5663.68Z"/><path class="cls-6" d="M5177.58,5256.27c4.38-18,25.39-14.09,52-40.55,39.91-39.74,41.77-97.7,49.22-96.19,3.57.72,2,13.79,7.3,39.61,3.29,16,7.14,26.62,10.93,37.72,13.22,38.61,24.27,78,36.46,116.94,28.61,91.38,42.91,137.07,32.82,143.35-10.58,6.58-32.64-30.67-112.12-106.57C5202.08,5300.85,5172.05,5279.09,5177.58,5256.27Z"/><path class="cls-28" d="M5321.52,5069.54c6.17,8.11,19.38,2.44,36.3,13.21,14.62,9.29,21.11,23.91,25.41,33.95,34.65,80.77,45.25,124,76.23,192.39,57.78,127.45,63.5,141.21,66.64,141.52a1.6,1.6,0,0,0,.52-.06c7.73-1.45,9.4-26.28,10-34.9,4.86-72.15-41.74-230.11-41.74-230.11-9.8-33.19-12.8-42.32-15.43-50s-4.2-10-5.5-15.39c-.48-2-.66-3.31-.85-4.42-1.86-10.84-7.21-21.49-8.17-23.57-5.31-11.44-7.91-43.81,10-63.19,10.25-11.11,28.31-17.64,43.56-13.2,20.44,5.95,28,29.64,37.42,26.4,4.22-1.44,5.47-6.65,9.11-17,5-14.27,12.83-27.37,18.23-41.5,3-7.93,5.13-12.55,32.82-69.79,17.64-36.45,34.36-73.4,52.87-109.39,19.94-38.78,29.54-54.9,36.46-84.88,5.59-24.2,10.07-44.94,0-66-11.07-23.16-35-36.85-56.52-39.61-32.74-4.19-58.06,17.16-80.21,35.84-20.94,17.66-34,35.44-58.34,73.56-27.33,42.79-43.49,72.1-60.16,100-33.36,55.78-62.56,114.24-97.75,168.81C5335.91,5017.75,5310.72,5055.34,5321.52,5069.54Z"/><path class="cls-29" d="M5595.06,5124.24c1.82-3.78,3.38-4.83,23.7-20.75,3.37-2.63,33.58-26.4,38.29-30.17,10.08-8.1,14.64-14,50.13-67,26-38.83,33-49.65,49.22-73.56,6-8.81,20.11-29.63,36.46-52.82,11.44-16.21,34.37-48.64,63.81-86.76,39.93-51.71,60.23-77.74,76.57-86.76,2.79-1.54,70.66-37.89,107.56-3.78,20.12,18.6,23.2,50.89,20.05,71.68-.55,3.64-2.12,12.4-18.23,43.38-13.79,26.51-25,43.87-40.1,67.9-26.12,41.56-20.66,34.35-41.93,67.9-26.26,41.41-32.48,48.44-49.23,75.45-1.48,2.39-32.58,52.67-56.51,98.08-32.35,61.38-101.63,192.81-72.92,218.8,21.95,19.87,93.24-29.14,105.73-37.73,33.66-23.13,44.74-41.7,91.16-88.65,21.94-22.19,42.88-41.51,84.77-80.16,105.95-97.76,147.94-125.91,191.42-128.26,9.69-.52,34.82-1.88,52.87,15.09,14.13,13.29,17.18,31.47,18.23,37.72,8.67,51.66-49.82,116.28-83.86,154.67-107.68,121.44-187.63,225.11-205.1,212.19-7.09-5.24.71-26.29-12.76-35.83-8-5.7-18.59-3.69-27.34-1.89a95.28,95.28,0,0,0-41.93,20.75c-49.87,43.91-103.1,180.22-154.05,182-28.61,1-51.93-40.81-82-92.42-15.64-26.8-26.22-57.48-47.4-118.83-2.29-6.64-14.89-47.18-40.11-128.26-5.65-18.17-9.91-36.83-16.4-54.7C5599.8,5159.4,5586.8,5141.42,5595.06,5124.24Z"/><path class="cls-30" d="M5812,5922.09c15.64,19.46,100-69.8,264.34-113.17,182.51-48.18,198.71-50.93,198.71-50.93,40.12-6.81,90.67-13.25,111.21-50.92,2.13-3.92,14.66-27.82,7.29-54.7-6.91-25.22-27.37-38.62-34.64-43.38-53.59-35.12-113.3,14.45-227.88,20.74-102.68,5.64-127-30.16-170.45-.94-35.26,23.72-27.71,53-75.66,151.84C5838.2,5876.9,5801.81,5909.39,5812,5922.09Z"/><path class="cls-31" d="M5244.84,5572.28a142.39,142.39,0,0,1,0,26.4h0c1.24,19.89-1.23,39.58-13.68,50-26.88,22.46-64.21-28.58-157.69-40.55-48.72-6.25-105.59-1-136.73-35.84-3-3.35-5.6-6.88-5.81-7.19-8.35-12.81-11.23-32.37-21.53-92.78-7.09-41.53-16.08-82.74-21.88-124.48-13.78-99.06-20.71-148.92-51.05-198.05-42.47-68.79-100.42-86.9-93-126.37,3.52-18.67,19.44-30.35,34.64-41.5,45.13-33.11,97.74-24.13,105.73-22.63,1.58.29,3.42.66,5.57,1.23,56.05,14.72,100.14,72.72,111.11,87.42,64.71,86.72,98.5,148.15,117.59,168.81,0,0,4.39,4.75,3.64,5.66-1.34,1.63-18-18.07-41.93-22.64-3.25-.62-27.48-4.91-40.11,9.43-9.13,10.38-7.89,25.63-7.29,32.07,5.62,59.57,91.15,154.13,100.27,164.09C5132.72,5405.35,5239.22,5518.64,5244.84,5572.28Z"/><text class="cls-32" transform="translate(4609.86 6611.31)">T<tspan class="cls-33" x="268.22" y="0">E</tspan><tspan class="cls-34" x="537.78" y="0">A</tspan><tspan class="cls-16" x="814.48" y="0">yudo</tspan></text><path class="cls-27" d="M10122,6703.73c-45.63,29.85,9.21,268.55,143.71,452.9,224.34,307.5,634.5,414.57,687,341.47,6.14-8.55,1.76-51.23-7-136.59-7.83-76.25-11.93-114.9-21-140.18-15-41.65-42.38-75.51-140.19-147.37-92.84-68.21-176.15-116.73-252.36-158.16-136.59-74.26-133.11-62-238.34-122.21C10167.37,6721.29,10140.91,6691.34,10122,6703.73Z"/><path class="cls-6" d="M10528.55,5927.33c8.41-34.39,48.8-26.87,99.89-77.29,76.73-75.73,80.3-186.18,94.63-183.31,6.86,1.37,3.78,26.28,14,75.48,6.34,30.48,13.73,50.75,21,71.89,25.4,73.58,46.65,148.6,70.1,222.86,55,174.14,82.49,261.21,63.09,273.17-20.35,12.55-62.76-58.44-215.56-203.08C10575.63,6012.27,10517.9,5970.81,10528.55,5927.33Z"/><path class="cls-35" d="M10805.28,5571.47c11.86,15.45,37.25,4.65,69.79,25.17,28.1,17.71,40.58,45.57,48.85,64.7,66.61,153.93,87,236.37,146.56,366.63,111.07,242.88,122.08,269.12,128.11,269.7a2.71,2.71,0,0,0,1-.12c14.86-2.74,18.07-50.06,19.19-66.49,9.34-137.51-80.26-438.53-80.26-438.53-18.83-63.26-24.6-80.65-29.66-95.25s-8.07-19-10.57-29.32c-.92-3.81-1.28-6.31-1.64-8.42-3.56-20.68-13.85-41-15.7-44.93-10.21-21.79-15.2-83.49,19.19-120.42,19.71-21.16,54.42-33.62,83.75-25.16,39.29,11.34,53.78,56.49,71.93,50.32,8.12-2.76,10.53-12.68,17.53-32.35,9.68-27.2,24.66-52.15,35-79.07,5.83-15.13,9.84-23.92,63.08-133,33.92-69.48,66.06-139.89,101.65-208.48,38.34-73.9,56.79-104.62,70.1-161.75,10.74-46.12,19.36-85.64,0-125.8-21.28-44.14-67.28-70.23-108.66-75.49-62.94-8-111.62,32.7-154.21,68.3-40.26,33.64-65.35,67.54-112.16,140.18-52.54,81.54-83.62,137.39-115.67,190.51-64.13,106.3-120.28,217.71-187.93,321.7C10832.94,5472.76,10784.51,5544.41,10805.28,5571.47Z"/><path class="cls-36" d="M11331.18,5675.71c3.5-7.21,6.49-9.21,45.56-39.54,6.48-5,64.56-50.31,73.61-57.51,19.39-15.43,28.14-26.77,96.38-127.6,50.08-74,63.44-94.6,94.63-140.18,11.49-16.79,38.66-56.46,70.1-100.65,22-30.9,66.08-92.7,122.68-165.34,76.76-98.54,115.78-148.16,147.2-165.35,5.37-2.93,135.85-72.2,206.8-7.19,38.67,35.44,44.6,97,38.55,136.59-1.06,6.93-4.08,23.64-35.05,82.67-26.51,50.53-48.08,83.61-77.11,129.4-50.21,79.21-39.71,65.46-80.61,129.4-50.48,78.92-62.43,92.32-94.64,143.78-2.85,4.56-62.63,100.37-108.65,186.91-62.2,117-195.38,367.45-140.2,417,42.2,37.87,179.27-55.52,203.29-71.89,64.7-44.08,86-79.48,175.25-168.94,42.18-42.28,82.45-79.11,163-152.76,203.69-186.3,284.43-239.95,368-244.42,18.63-1,66.94-3.59,101.64,28.75,27.16,25.32,33,60,35,71.89,16.67,98.44-95.79,221.59-161.23,294.75-207,231.43-360.72,429-394.3,404.37-13.64-10,1.35-50.11-24.54-68.29-15.46-10.86-35.74-7-52.57-3.6-45.13,9.19-75.58,35.14-80.62,39.54-95.87,83.69-198.21,343.45-296.16,346.87-55,1.92-99.84-77.79-157.73-176.13-30.06-51.07-50.41-109.53-91.13-226.45-4.4-12.66-28.62-89.92-77.1-244.42-10.87-34.64-19.07-70.19-31.55-104.24C11340.29,5742.72,11315.29,5708.45,11331.18,5675.71Z"/><path class="cls-37" d="M11748.27,7196.17c30.06,37.09,192.27-133,508.21-215.67,350.89-91.81,382-97.05,382-97.05,77.13-13,174.32-25.25,213.8-97.05,4.1-7.46,28.18-53,14-104.24-13.28-48.05-52.62-73.6-66.59-82.67-103-66.91-217.84,27.55-438.12,39.54-197.41,10.74-244.23-57.48-327.71-1.8-67.78,45.21-53.27,101.08-145.46,289.35C11798.63,7110.06,11728.65,7172,11748.27,7196.17Z"/><path class="cls-38" d="M10657.85,6529.54a269.22,269.22,0,0,1,0,50.32h0c2.39,37.91-2.37,75.44-26.29,95.25-51.68,42.81-123.46-54.45-303.18-77.28-93.66-11.89-203-1.84-262.87-68.29-5.75-6.39-10.78-13.11-11.17-13.7-16-24.41-21.6-61.69-41.4-176.81-13.62-79.15-30.9-157.68-42.06-237.23-26.48-188.77-39.82-283.79-98.14-377.42-81.67-131.1-193.06-165.61-178.75-240.83,6.76-35.57,37.38-57.84,66.59-79.08,86.78-63.1,187.93-46,203.29-43.13,3,.56,6.57,1.27,10.69,2.35,107.77,28.05,192.54,138.59,213.62,166.59,124.42,165.27,189.39,282.33,226.07,321.7,0,0,8.44,9.06,7,10.79-2.58,3.12-34.61-34.43-80.61-43.14-6.25-1.18-52.85-9.35-77.11,18-17.55,19.76-15.19,48.83-14,61.1,10.79,113.53,175.24,293.73,192.77,312.72C10442.29,6211.43,10647,6427.32,10657.85,6529.54Z"/><text class="cls-39" transform="translate(9437.05 8509.62) scale(1.01 1)">T<tspan class="cls-40" x="511.15" y="0">E</tspan><tspan class="cls-41" x="1024.84" y="0">A</tspan><tspan class="cls-24" x="1552.15" y="0">yudo</tspan></text></g><g id="Logo_Paleta_1_Plain" data-name="Logo Paleta 1 Plain"><path class="cls-27" d="M4964.91,3197c-23.74,15.66,4.79,140.92,74.74,237.66,116.69,161.35,330,217.54,357.32,179.18,3.19-4.49.91-26.88-3.65-71.67-4.07-40-6.2-60.3-10.93-73.56-7.8-21.86-22.05-39.63-72.93-77.34-48.29-35.79-91.62-61.25-131.26-83-71-39-69.23-32.53-124-64.13C4988.52,3206.24,4974.75,3190.52,4964.91,3197Z"/><path class="cls-6" d="M5176.38,2789.61c4.38-18,25.39-14.1,52-40.55,39.91-39.75,41.77-97.71,49.22-96.2,3.57.72,2,13.79,7.29,39.61,3.3,16,7.14,26.63,10.94,37.72,13.21,38.61,24.26,78,36.46,116.95,28.61,91.38,42.91,137.07,32.82,143.34-10.59,6.59-32.64-30.67-112.12-106.56C5200.87,2834.18,5170.84,2812.42,5176.38,2789.61Z"/><path class="cls-6" d="M5320.32,2602.88c6.17,8.1,19.38,2.44,36.3,13.2,14.62,9.3,21.11,23.92,25.41,34,34.65,80.78,45.25,124,76.23,192.39,57.77,127.45,63.5,141.22,66.64,141.52a1.34,1.34,0,0,0,.52-.06c7.73-1.44,9.4-26.27,10-34.89,4.85-72.16-41.75-230.11-41.75-230.11-9.79-33.2-12.8-42.32-15.42-50s-4.2-10-5.5-15.38c-.48-2-.67-3.31-.86-4.42-1.85-10.85-7.2-21.5-8.16-23.58-5.31-11.43-7.91-43.81,10-63.18,10.25-11.11,28.31-17.65,43.56-13.21,20.44,6,28,29.64,37.41,26.41,4.23-1.45,5.48-6.66,9.12-17,5-14.27,12.83-27.36,18.23-41.49,3-7.94,5.12-12.55,32.82-69.79,17.63-36.46,34.36-73.41,52.86-109.4,20-38.78,29.54-54.9,36.47-84.88,5.58-24.2,10.07-44.93,0-66-11.07-23.16-35-36.85-56.52-39.61-32.74-4.19-58.06,17.16-80.21,35.84-20.94,17.65-34,35.44-58.34,73.56-27.33,42.78-43.49,72.09-60.16,100-33.36,55.79-62.57,114.25-97.75,168.81C5334.71,2551.08,5309.52,2588.68,5320.32,2602.88Z"/><path class="cls-5" d="M5593.86,2657.58c1.82-3.79,3.38-4.84,23.7-20.75,3.37-2.64,33.58-26.4,38.28-30.18,10.09-8.1,14.64-14.05,50.14-67,26.05-38.83,33-49.64,49.22-73.56,6-8.81,20.11-29.63,36.46-52.81,11.44-16.22,34.37-48.64,63.81-86.77,39.93-51.7,60.22-77.74,76.57-86.76,2.79-1.54,70.65-37.88,107.56-3.77,20.11,18.59,23.2,50.88,20,71.67-.55,3.64-2.12,12.41-18.23,43.38-13.79,26.52-25,43.88-40.11,67.91-26.11,41.56-20.65,34.34-41.93,67.9-26.25,41.41-32.47,48.44-49.22,75.45-1.48,2.39-32.58,52.66-56.51,98.08-32.36,61.38-101.63,192.81-72.93,218.79,21.95,19.87,93.25-29.14,105.74-37.72,33.65-23.14,44.74-41.71,91.15-88.65,21.94-22.19,42.89-41.52,84.78-80.16,105.95-97.76,147.94-125.91,191.42-128.26,9.69-.53,34.82-1.88,52.86,15.09,14.13,13.28,17.19,31.47,18.24,37.72,8.67,51.65-49.83,116.27-83.87,154.66C6133.37,2873.33,6053.42,2977,6036,2964.08c-7.09-5.24.71-26.3-12.76-35.84-8-5.7-18.59-3.68-27.35-1.89a95.42,95.42,0,0,0-41.93,20.75c-49.86,43.92-103.09,180.22-154,182-28.62,1-51.93-40.82-82-92.43-15.64-26.79-26.23-57.47-47.4-118.82-2.29-6.65-14.89-47.19-40.11-128.26-5.65-18.18-9.92-36.83-16.41-54.7C5598.6,2692.74,5585.6,2674.75,5593.86,2657.58Z"/><path class="cls-42" d="M5810.8,3455.42c15.64,19.47,100-69.79,264.35-113.17,182.51-48.17,198.71-50.92,198.71-50.92,40.12-6.82,90.67-13.25,111.21-50.93,2.13-3.91,14.65-27.82,7.29-54.7-6.91-25.21-27.37-38.62-34.64-43.38-53.59-35.11-113.3,14.46-227.88,20.75-102.68,5.63-127-30.16-170.46-1-35.25,23.73-27.7,53-75.65,151.84C5837,3410.24,5800.6,3442.73,5810.8,3455.42Z"/><path class="cls-7" d="M5243.64,3105.61a142.48,142.48,0,0,1,0,26.41h0c1.24,19.89-1.23,39.59-13.68,50-26.88,22.47-64.21-28.57-157.69-40.55-48.72-6.24-105.59-1-136.73-35.84-3-3.35-5.61-6.87-5.81-7.18-8.35-12.81-11.23-32.37-21.54-92.78-7.08-41.54-16.07-82.74-21.87-124.49-13.78-99-20.71-148.91-51-198-42.48-68.79-100.42-86.9-93-126.37,3.52-18.66,19.44-30.35,34.63-41.49,45.14-33.12,97.75-24.13,105.74-22.64,1.57.3,3.42.67,5.56,1.23,56.06,14.72,100.15,72.73,111.12,87.42,64.71,86.72,98.5,148.15,117.58,168.81,0,0,4.39,4.76,3.65,5.66-1.35,1.64-18-18.06-41.93-22.63-3.25-.62-27.49-4.91-40.11,9.43-9.13,10.37-7.9,25.62-7.29,32.06,5.61,59.58,91.15,154.13,100.27,164.1C5131.52,2938.69,5238,3052,5243.64,3105.61Z"/><text class="cls-32" transform="translate(4608.65 4144.65)">T<tspan class="cls-33" x="268.22" y="0">E</tspan><tspan class="cls-34" x="537.78" y="0">A</tspan><tspan class="cls-16" x="814.48" y="0">yudo</tspan></text></g><g id="Icono_Paleta_2" data-name="Icono Paleta 2"><rect class="cls-43" x="3362.36" y="3443.61" width="897" height="897" rx="134.56"/><path class="cls-8" d="M3516.33,4045.92c-11.78,8.16,2.38,73.41,37.09,123.81,57.91,84.06,163.78,113.33,177.33,93.35,1.58-2.34.45-14-1.81-37.34-2-20.85-3.08-31.42-5.43-38.33-3.87-11.38-10.94-20.64-36.19-40.28-24-18.65-45.47-31.91-65.14-43.24-35.26-20.3-34.36-17-61.52-33.41C3528.05,4050.72,3521.22,4042.53,3516.33,4045.92Z"/><path class="cls-3" d="M3621.28,3833.67c2.17-9.4,12.59-7.34,25.78-21.13,19.81-20.7,20.73-50.9,24.43-50.11,1.77.38,1,7.19,3.62,20.63a149.46,149.46,0,0,0,5.42,19.66c6.56,20.11,12,40.62,18.1,60.92,14.19,47.61,21.29,71.41,16.28,74.68-5.25,3.43-16.2-16-55.64-55.52C3633.43,3856.89,3618.53,3845.56,3621.28,3833.67Z"/><path class="cls-44" d="M3692.7,3736.34c3.06,4.23,9.61,1.28,18,6.89,7.25,4.85,10.47,12.46,12.6,17.69,17.18,42.09,22.43,64.63,37.79,100.25,28.64,66.41,31.48,73.58,33,73.74a.58.58,0,0,0,.26,0c3.83-.75,4.67-13.68,5-18.17,2.42-37.59-20.67-119.89-20.67-119.89-4.85-17.3-6.34-22.05-7.64-26.05s-2.09-5.19-2.73-8c-.24-1.05-.33-1.73-.42-2.31a51.5,51.5,0,0,0-4.05-12.28c-2.63-6-3.91-22.83,5-32.92,5.09-5.78,14-9.18,21.62-6.86,10.14,3.1,13.88,15.45,18.56,13.76,2.1-.75,2.72-3.46,4.53-8.84,2.5-7.43,6.37-14.25,9-21.61,1.51-4.14,2.55-6.54,16.3-36.35,8.77-19,17.07-38.23,26.26-57,9.91-20.2,14.68-28.59,18.12-44.21,2.78-12.61,5-23.41,0-34.39-5.49-12.07-17.36-19.21-28-20.65-16.24-2.19-28.81,8.92-39.81,18.65-10.4,9.19-16.88,18.45-29,38.31-13.57,22.28-21.6,37.55-29.87,52.06-16.57,29.05-31.08,59.5-48.55,87.92C3699.85,3709.36,3687.34,3728.94,3692.7,3736.34Z"/><path class="cls-45" d="M3828.45,3764.89c.91-2,1.68-2.52,11.77-10.81,1.67-1.38,16.66-13.76,19-15.72,5-4.22,7.27-7.32,24.88-34.89,12.93-20.23,16.38-25.86,24.43-38.32,3-4.59,10-15.43,18.1-27.51,5.67-8.45,17.05-25.34,31.66-45.2,19.81-26.94,29.89-40.51,38-45.2,1.38-.81,35.06-19.74,53.38-2,10,9.69,11.51,26.51,10,37.34-.28,1.89-1.05,6.46-9.05,22.6-6.84,13.81-12.41,22.85-19.9,35.37-13,21.66-10.25,17.9-20.81,35.38-13,21.57-16.12,25.23-24.43,39.3-.73,1.25-16.17,27.44-28,51.1-16.06,32-50.44,100.45-36.19,114,10.89,10.36,46.27-15.17,52.47-19.65,16.7-12.05,22.2-21.73,45.24-46.18,10.88-11.56,21.28-21.63,42.06-41.76,52.58-50.93,73.42-65.6,95-66.82,4.81-.27,17.28-1,26.24,7.86,7,6.92,8.52,16.39,9,19.65,4.31,26.91-24.72,60.58-41.61,80.58-53.44,63.26-93.11,117.27-101.78,110.54-3.52-2.73.35-13.7-6.34-18.67-4-3-9.22-1.92-13.57-1a46.71,46.71,0,0,0-20.81,10.81c-24.74,22.88-51.16,93.89-76.44,94.82-14.2.53-25.77-21.26-40.72-48.15-7.76-14-13-29.94-23.52-61.9-1.14-3.46-7.39-24.58-19.9-66.82-2.81-9.47-4.92-19.19-8.14-28.5C3830.81,3783.2,3824.35,3773.83,3828.45,3764.89Z"/><path class="cls-46" d="M3936.11,4180.54c7.77,10.14,49.64-36.36,131.19-59,90.57-25.1,98.61-26.53,98.61-26.53,19.91-3.55,45-6.91,55.19-26.53,1.06-2,7.27-14.5,3.62-28.5-3.43-13.14-13.59-20.12-17.19-22.6-26.6-18.29-56.23,7.53-113.09,10.81-51,2.93-63-15.71-84.59-.49-17.5,12.36-13.75,27.63-37.55,79.1C3949.11,4157,3931.05,4173.92,3936.11,4180.54Z"/><path class="cls-47" d="M3647.49,3986.43a78.34,78.34,0,0,1,0,13.75h0c.61,10.37-.61,20.63-6.79,26-13.34,11.71-31.87-14.88-78.26-21.12-24.17-3.25-52.4-.51-67.85-18.67-1.49-1.75-2.78-3.58-2.88-3.75-4.15-6.67-5.58-16.86-10.69-48.33-3.52-21.64-8-43.11-10.86-64.85-6.83-51.61-10.27-77.58-25.33-103.18-21.08-35.84-49.83-45.27-46.14-65.84,1.75-9.72,9.65-15.81,17.19-21.61,22.4-17.25,48.51-12.57,52.47-11.79.78.15,1.7.34,2.76.64,27.82,7.67,49.7,37.88,55.14,45.54,32.12,45.18,48.89,77.18,58.36,87.94,0,0,2.18,2.48,1.81,3-.67.85-8.94-9.41-20.81-11.79-1.61-.32-13.64-2.56-19.9,4.91-4.54,5.41-3.92,13.35-3.62,16.71,2.78,31,45.23,80.29,49.76,85.49C3591.85,3899.47,3644.7,3958.48,3647.49,3986.43Z"/></g><g id="Paleta_2" data-name="Paleta 2"><g id="Paleta"><rect class="cls-4" x="3357.86" y="981.11" width="164" height="164"/><rect class="cls-3" x="3543.86" y="981.11" width="164" height="164"/><rect class="cls-1" x="3729.86" y="981.11" width="164" height="164"/><rect class="cls-26" x="3915.86" y="981.11" width="164" height="164"/><rect class="cls-8" x="4101.86" y="981.11" width="164" height="164"/></g><path class="cls-8" d="M3468,3028.92c-13,8.31,2.63,74.72,41,126,64,85.55,181,115.34,196,95,1.76-2.38.5-14.25-2-38-2.23-21.21-3.4-32-6-39-4.27-11.58-12.09-21-40-41-26.48-19-50.25-32.47-72-44-39-20.65-38-17.24-68-34C3481,3033.81,3473.41,3025.48,3468,3028.92Z"/><path class="cls-3" d="M3584,2812.92c2.41-9.56,13.93-7.47,28.5-21.5,21.9-21.07,22.92-51.79,27-51,2,.39,1.08,7.32,4,21a143.61,143.61,0,0,0,6,20c7.25,20.47,13.31,41.35,20,62,15.7,48.45,23.54,72.68,18,76-5.8,3.49-17.9-16.26-61.5-56.5C3597.44,2836.56,3581,2825,3584,2812.92Z"/><path class="cls-48" d="M3663,2713.88c3.38,4.29,10.63,1.29,19.91,7,8,4.94,11.57,12.69,13.93,18,19,42.83,24.79,65.77,41.77,102,31.66,67.59,34.79,74.89,36.51,75.05a1,1,0,0,0,.29,0c4.24-.77,5.16-13.93,5.48-18.5,2.68-38.26-22.84-122-22.84-122-5.36-17.6-7-22.44-8.45-26.5s-2.3-5.29-3-8.16c-.26-1.06-.37-1.76-.47-2.35a49.92,49.92,0,0,0-4.47-12.5c-2.91-6.06-4.33-23.23,5.49-33.5,5.62-5.88,15.53-9.34,23.89-7,11.21,3.16,15.34,15.73,20.52,14,2.32-.76,3-3.52,5-9,2.76-7.57,7-14.51,10-22,1.66-4.21,2.81-6.65,18-37,9.69-19.33,18.87-38.91,29-58,11-20.55,16.21-29.1,20-45,3.07-12.83,5.53-23.82,0-35-6.07-12.28-19.19-19.55-31-21-17.95-2.23-31.85,9.08-44,19-11.49,9.35-18.66,18.78-32,39-15,22.68-23.88,38.22-33,53-18.31,29.56-34.34,60.55-53.66,89.47C3670.86,2686.42,3657,2706.34,3663,2713.88Z"/><path class="cls-49" d="M3813,2742.92c1-2,1.86-2.56,13-11,1.85-1.39,18.42-14,21-16,5.54-4.29,8-7.44,27.5-35.5,14.29-20.58,18.1-26.31,27-39,3.28-4.67,11-15.7,20-28,6.28-8.59,18.86-25.78,35-46,21.91-27.41,33-41.21,42-46,1.53-.81,38.76-20.08,59-2,11,9.86,12.73,27,11,38-.3,1.93-1.16,6.58-10,23-7.56,14.06-13.71,23.26-22,36-14.32,22-11.33,18.21-23,36-14.4,22-17.81,25.69-27,40-.81,1.27-17.87,27.93-31,52-17.74,32.55-55.74,102.23-40,116,12,10.54,51.15-15.44,58-20,18.46-12.26,24.54-22.11,50-47,12-11.76,23.53-22,46.5-42.5,58.12-51.83,81.16-66.75,105-68,5.32-.27,19.1-1,29,8,7.75,7,9.43,16.69,10,20,4.76,27.39-27.32,61.65-46,82-59.06,64.39-102.91,119.35-112.5,112.5-3.89-2.78.39-13.94-7-19-4.41-3-10.19-2-15-1a53.08,53.08,0,0,0-23,11c-27.35,23.29-56.55,95.55-84.5,96.5-15.69.54-28.48-21.64-45-49-8.57-14.2-14.38-30.47-26-63-1.25-3.52-8.16-25-22-68-3.1-9.63-5.44-19.52-9-29C3815.6,2761.57,3808.47,2752,3813,2742.92Z"/><path class="cls-50" d="M3932,3165.92c8.58,10.32,54.86-37,145-60,100.12-25.54,109-27,109-27,22-3.61,49.74-7,61-27,1.17-2.07,8-14.75,4-29-3.79-13.36-15-20.47-19-23-29.39-18.61-62.15,7.67-125,11-56.32,3-69.68-16-93.5-.5-19.34,12.58-15.19,28.12-41.5,80.5C3946.37,3142,3926.41,3159.19,3932,3165.92Z"/><path class="cls-51" d="M3613,2968.38a72.8,72.8,0,0,1,0,14h0c.69,10.55-.67,21-7.5,26.5-14.74,11.91-35.22-15.15-86.5-21.5-26.72-3.31-57.91-.51-75-19a48.87,48.87,0,0,1-3.18-3.81c-4.58-6.79-6.16-17.16-11.82-49.19-3.88-22-8.81-43.86-12-66-7.55-52.51-11.35-79-28-105-23.3-36.47-55.08-46.07-51-67,1.94-9.89,10.67-16.09,19-22,24.76-17.55,53.62-12.79,58-12,.87.16,1.88.36,3.06.66,30.74,7.8,54.93,38.55,60.94,46.34,35.5,46,54,78.55,64.5,89.5,0,0,2.41,2.52,2,3-.73.87-9.87-9.57-23-12-1.78-.33-15.07-2.6-22,5-5,5.5-4.33,13.59-4,17,3.08,31.59,50,81.72,55,87C3551.47,2879.88,3609.89,2939.94,3613,2968.38Z"/></g><g id="Icono_Paleta_1" data-name="Icono Paleta 1"><rect class="cls-52" x="2265.36" y="3437.61" width="897" height="897" rx="134.56"/><path class="cls-27" d="M2405.58,4030.7c-12.08,7.76,2.43,69.87,38,117.83,59.35,80,167.88,107.85,181.76,88.84,1.62-2.23.46-13.33-1.86-35.54-2.07-19.84-3.15-29.89-5.56-36.47-4-10.84-11.21-19.64-37.1-38.34-24.56-17.75-46.6-30.37-66.76-41.15-36.14-19.32-35.22-16.13-63.06-31.79C2417.59,4035.27,2410.58,4027.48,2405.58,4030.7Z"/><path class="cls-6" d="M2513.15,3828.71c2.23-8.95,12.91-7,26.43-20.11,20.3-19.7,21.25-48.44,25-47.69,1.81.35,1,6.83,3.71,19.63a133.65,133.65,0,0,0,5.56,18.71c6.72,19.14,12.34,38.66,18.55,58,14.55,45.3,21.82,68,16.69,71.07-5.38,3.26-16.61-15.21-57-52.84C2525.61,3850.81,2510.33,3840,2513.15,3828.71Z"/><path class="cls-53" d="M2586.37,3736.13c3.13,4,9.85,1.2,18.46,6.54,7.44,4.61,10.74,11.86,12.93,16.83,17.62,40.05,23,61.5,38.77,95.39,29.39,63.19,32.31,70,33.9,70.17a.8.8,0,0,0,.26,0c3.94-.72,4.79-13,5.08-17.3,2.47-35.78-21.23-114.09-21.23-114.09-5-16.46-6.51-21-7.85-24.78s-2.14-5-2.8-7.63c-.24-1-.34-1.64-.43-2.19a46.15,46.15,0,0,0-4.16-11.69c-2.7-5.67-4-21.72,5.08-31.33,5.22-5.51,14.4-8.75,22.16-6.55,10.4,3,14.23,14.7,19,13.1,2.15-.72,2.79-3.31,4.64-8.42,2.56-7.08,6.53-13.57,9.27-20.57,1.55-3.94,2.61-6.23,16.7-34.61,9-18.07,17.47-36.39,26.89-54.23,10.14-19.23,15-27.22,18.55-42.09,2.84-12,5.12-22.28,0-32.73-5.64-11.48-17.81-18.27-28.75-19.63-16.66-2.08-29.54,8.5-40.81,17.76-10.65,8.76-17.29,17.57-29.67,36.47-13.9,21.22-22.13,35.75-30.6,49.57-17,27.65-31.83,56.64-49.73,83.69C2593.69,3710.44,2580.87,3729.08,2586.37,3736.13Z"/><path class="cls-54" d="M2725.51,3763.24c.93-1.87,1.72-2.39,12.06-10.28,1.71-1.31,17.08-13.09,19.47-15,5.13-4,7.45-7,25.5-33.2,13.25-19.25,16.79-24.61,25-36.47,3-4.37,10.23-14.69,18.55-26.19,5.82-8,17.48-24.11,32.46-43,20.31-25.64,30.63-38.55,38.94-43,1.42-.77,35.95-18.78,54.72-1.87,10.23,9.22,11.8,25.23,10.2,35.53-.28,1.81-1.08,6.15-9.28,21.51-7,13.15-12.72,21.75-20.4,33.67-13.28,20.6-10.5,17-21.33,33.66-13.35,20.53-16.51,24-25,37.41-.76,1.19-16.58,26.11-28.75,48.63-16.46,30.43-51.7,95.59-37.1,108.47,11.17,9.86,47.44-14.44,53.79-18.7,17.12-11.47,22.76-20.68,46.37-44,11.16-11,21.81-20.58,43.12-39.74,53.89-48.47,75.25-62.43,97.37-63.59,4.93-.26,17.71-.94,26.89,7.48,7.19,6.58,8.74,15.6,9.28,18.7,4.41,25.61-25.35,57.65-42.66,76.68-54.77,60.21-95.44,111.61-104.33,105.21-3.6-2.6.36-13-6.49-17.77-4.09-2.83-9.45-1.83-13.91-.94a49,49,0,0,0-21.33,10.29c-25.36,21.77-52.44,89.35-78.36,90.24-14.55.5-26.41-20.23-41.73-45.82-8-13.29-13.34-28.5-24.11-58.91-1.17-3.3-7.57-23.4-20.4-63.59-2.88-9-5-18.26-8.35-27.12C2727.92,3780.68,2721.31,3771.76,2725.51,3763.24Z"/><path class="cls-55" d="M2835.87,4158.81c8,9.65,50.87-34.6,134.46-56.11,92.84-23.88,101.08-25.24,101.08-25.24,20.41-3.38,46.12-6.57,56.57-25.25,1.08-1.94,7.46-13.8,3.71-27.12-3.52-12.5-13.92-19.15-17.62-21.51-27.26-17.41-57.64,7.17-115.92,10.29-52.23,2.79-64.62-15-86.71-.47-17.93,11.76-14.09,26.29-38.48,75.28C2849.19,4136.41,2830.68,4152.52,2835.87,4158.81Z"/><path class="cls-56" d="M2547.36,3985.38a69,69,0,0,1,0,13.09h0c.63,9.86-.63,19.63-7,24.78-13.67,11.14-32.66-14.16-80.21-20.1-24.78-3.1-53.71-.48-69.55-17.77-1.53-1.66-2.85-3.41-3-3.56-4.25-6.35-5.71-16.05-10.95-46-3.61-20.6-8.18-41-11.13-61.72-7-49.11-10.54-73.83-26-98.19-21.6-34.11-51.08-43.09-47.29-62.66,1.79-9.25,9.89-15.05,17.62-20.57,23-16.42,49.72-12,53.78-11.22.8.14,1.74.33,2.83.61,28.52,7.29,50.95,36,56.52,43.34,32.92,43,50.11,73.45,59.82,83.69,0,0,2.23,2.36,1.85,2.81-.68.81-9.16-9-21.33-11.22-1.65-.31-14-2.44-20.4,4.67-4.64,5.15-4,12.71-3.71,15.9,2.86,29.54,46.37,76.42,51,81.36C2490.33,3902.62,2544.5,3958.79,2547.36,3985.38Z"/></g><g id="Paleta_1" data-name="Paleta 1"><g id="Paleta-2" data-name="Paleta"><rect class="cls-27" x="2258.86" y="981.11" width="164" height="164"/><rect class="cls-7" x="2444.86" y="981.11" width="164" height="164"/><rect class="cls-6" x="2630.86" y="981.11" width="164" height="164"/><rect class="cls-5" x="2816.86" y="981.11" width="164" height="164"/><rect class="cls-42" x="3002.86" y="981.11" width="164" height="164"/></g><path class="cls-27" d="M2381.68,3000.24c-13,8.31,2.63,74.72,41,126,64,85.55,181,115.34,196,95,1.76-2.38.5-14.25-2-38-2.23-21.21-3.4-32-6-39-4.27-11.58-12.09-21-40-41-26.48-19-50.25-32.47-72-44-39-20.65-38-17.24-68-34C2394.64,3005.13,2387.09,2996.8,2381.68,3000.24Z"/><path class="cls-6" d="M2497.68,2784.24c2.41-9.56,13.93-7.47,28.5-21.5,21.9-21.07,22.92-51.79,27-51,2,.39,1.08,7.32,4,21a143.61,143.61,0,0,0,6,20c7.25,20.47,13.31,41.35,20,62,15.7,48.45,23.54,72.68,18,76-5.8,3.49-17.9-16.26-61.5-56.5C2511.12,2807.88,2494.65,2796.34,2497.68,2784.24Z"/><path class="cls-57" d="M2576.64,2685.24c3.38,4.3,10.63,1.3,19.91,7,8,4.93,11.58,12.68,13.94,18,19,42.83,24.82,65.76,41.81,102,31.69,67.58,34.84,74.87,36.55,75a.81.81,0,0,0,.29,0c4.24-.76,5.16-13.93,5.48-18.5,2.66-38.25-22.9-122-22.9-122-5.38-17.6-7-22.43-8.47-26.5s-2.3-5.28-3-8.15c-.26-1.06-.37-1.76-.47-2.35a50,50,0,0,0-4.48-12.5c-2.91-6.06-4.34-23.22,5.48-33.5,5.62-5.88,15.52-9.35,23.89-7,11.21,3.16,15.35,15.72,20.52,14,2.32-.76,3-3.53,5-9,2.77-7.56,7-14.51,10-22,1.67-4.2,2.81-6.65,18-37,9.68-19.32,18.85-38.91,29-58,10.94-20.56,16.21-29.1,20-45,3.07-12.83,5.53-23.82,0-35-6.07-12.28-19.19-19.53-31-21-17.95-2.22-31.84,9.1-44,19-11.48,9.36-18.64,18.79-32,39-15,22.69-23.85,38.23-33,53-18.29,29.58-34.31,60.57-53.62,89.5C2584.53,2657.78,2570.71,2677.72,2576.64,2685.24Z"/><path class="cls-58" d="M2726.68,2714.24c1-2,1.86-2.56,13-11,1.85-1.39,18.42-14,21-16,5.54-4.29,8-7.44,27.5-35.5,14.29-20.58,18.1-26.31,27-39,3.28-4.67,11-15.7,20-28,6.28-8.59,18.86-25.78,35-46,21.91-27.41,33-41.21,42-46,1.53-.81,38.76-20.08,59-2,11,9.86,12.73,27,11,38-.3,1.93-1.16,6.58-10,23-7.56,14.06-13.71,23.26-22,36-14.32,22-11.33,18.21-23,36-14.4,22-17.81,25.69-27,40-.81,1.27-17.87,27.93-31,52-17.74,32.55-55.74,102.23-40,116,12,10.54,51.15-15.44,58-20,18.46-12.26,24.54-22.11,50-47,12-11.76,23.53-22,46.5-42.5,58.12-51.83,81.16-66.75,105-68,5.32-.27,19.1-1,29,8,7.75,7.05,9.43,16.69,10,20,4.76,27.39-27.32,61.65-46,82-59.06,64.39-102.91,119.35-112.5,112.5-3.89-2.78.39-13.94-7-19-4.41-3-10.19-1.95-15-1a53.08,53.08,0,0,0-23,11c-27.35,23.29-56.55,95.55-84.5,96.5-15.69.54-28.48-21.64-45-49-8.57-14.2-14.38-30.47-26-63-1.25-3.52-8.16-25-22-68-3.1-9.63-5.44-19.52-9-29C2729.28,2732.89,2722.15,2723.35,2726.68,2714.24Z"/><path class="cls-59" d="M2845.68,3137.24c8.58,10.32,54.86-37,145-60,100.12-25.54,109-27,109-27,22-3.61,49.74-7,61-27,1.17-2.07,8-14.75,4-29-3.79-13.36-15-20.47-19-23-29.39-18.61-62.15,7.67-125,11-56.32,3-69.68-16-93.5-.5-19.34,12.58-15.19,28.12-41.5,80.5C2860.05,3113.29,2840.09,3130.51,2845.68,3137.24Z"/><path class="cls-60" d="M2534.57,2951.78a72.8,72.8,0,0,1,0,14h0c.69,10.55-.67,21-7.5,26.5-14.74,11.91-35.22-15.15-86.5-21.5-26.72-3.31-57.91-.51-75-19a48.87,48.87,0,0,1-3.18-3.81c-4.58-6.79-6.16-17.16-11.82-49.19-3.88-22-8.81-43.86-12-66-7.55-52.51-11.35-79-28-105-23.3-36.47-55.08-46.07-51-67,1.94-9.89,10.67-16.09,19-22,24.76-17.55,53.62-12.79,58-12,.87.16,1.88.36,3.06.66,30.74,7.8,54.93,38.55,60.94,46.34,35.5,46,54,78.55,64.5,89.5,0,0,2.41,2.52,2,3-.73.87-9.87-9.57-23-12-1.78-.33-15.07-2.6-22,5-5,5.5-4.33,13.59-4,17,3.08,31.59,50,81.72,55,87C2473.07,2863.28,2531.49,2923.34,2534.57,2951.78Z"/></g><g id="Paleta_2_Plain" data-name="Paleta 2 Plain"><path class="cls-8" d="M3461.39,1941.43c-13,8.31,2.63,74.71,41,126,64,85.55,181,115.34,196,95,1.75-2.38.5-14.25-2-38-2.23-21.21-3.4-32-6-39-4.27-11.59-12.09-21-40-41-26.49-19-50.25-32.47-72-44-39-20.66-38-17.25-68-34C3474.35,1946.32,3466.79,1938,3461.39,1941.43Z"/><path class="cls-3" d="M3577.39,1725.43c2.4-9.56,13.93-7.47,28.5-21.5,21.9-21.07,22.92-51.8,27-51,2,.38,1.08,7.31,4,21a143.61,143.61,0,0,0,6,20c7.25,20.47,13.31,41.34,20,62,15.69,48.45,23.54,72.67,18,76-5.8,3.49-17.9-16.26-61.5-56.5C3590.83,1749.06,3574.36,1737.53,3577.39,1725.43Z"/><path class="cls-3" d="M3656.34,1626.38c3.38,4.3,10.63,1.3,19.91,7,8,4.93,11.57,12.69,13.93,18,19,42.83,24.79,65.77,41.77,102,31.66,67.58,34.79,74.88,36.51,75a.81.81,0,0,0,.29,0c4.24-.76,5.16-13.92,5.48-18.49,2.68-38.26-22.84-122-22.84-122-5.36-17.61-7-22.44-8.45-26.51s-2.3-5.28-3-8.16c-.27-1.06-.37-1.75-.47-2.34a49.4,49.4,0,0,0-4.48-12.5c-2.91-6.06-4.32-23.23,5.5-33.5,5.62-5.88,15.53-9.35,23.89-7,11.21,3.16,15.34,15.72,20.52,14,2.32-.77,3-3.53,5-9,2.77-7.56,7.05-14.5,10-22,1.67-4.21,2.82-6.66,18-37,9.69-19.33,18.87-38.91,29-58,11-20.55,16.21-29.1,20-45,3.07-12.83,5.53-23.82,0-35-6.06-12.28-19.18-19.55-31-21-17.95-2.23-31.85,9.09-44,19-11.49,9.36-18.66,18.79-32,39-15,22.68-23.88,38.21-33,53-18.31,29.56-34.34,60.55-53.66,89.47C3664.24,1598.93,3650.42,1618.85,3656.34,1626.38Z"/><path class="cls-1" d="M3806.39,1655.43c1-2,1.86-2.56,13-11,1.85-1.4,18.42-14,21-16,5.54-4.29,8-7.45,27.5-35.5,14.29-20.58,18.1-26.32,27-39,3.28-4.67,11-15.71,20-28,6.28-8.6,18.86-25.79,35-46,21.9-27.41,33-41.22,42-46,1.53-.81,38.76-20.08,59-2,11,9.86,12.73,27,11,38-.3,1.93-1.16,6.58-10,23-7.56,14.06-13.71,23.26-22,36-14.32,22-11.33,18.21-23,36-14.4,22-17.81,25.68-27,40-.81,1.27-17.87,27.93-31,52-17.74,32.54-55.74,102.23-40,116,12,10.54,51.15-15.45,58-20,18.46-12.26,24.54-22.11,50-47,12-11.76,23.53-22,46.5-42.5,58.12-51.83,81.15-66.75,105-68,5.32-.28,19.1-1,29,8,7.75,7,9.43,16.69,10,20,4.76,27.39-27.33,61.65-46,82-59.06,64.39-102.92,119.35-112.5,112.5-3.89-2.78.39-13.94-7-19-4.41-3-10.19-2-15-1a53.08,53.08,0,0,0-23,11c-27.35,23.28-56.55,95.55-84.5,96.5-15.69.54-28.48-21.64-45-49-8.57-14.21-14.38-30.47-26-63-1.25-3.52-8.16-25-22-68-3.1-9.63-5.44-19.52-9-29C3809,1674.07,3801.86,1664.54,3806.39,1655.43Z"/><path class="cls-26" d="M3925.39,2078.43c8.58,10.32,54.86-37,145-60,100.12-25.54,109-27,109-27,22-3.61,49.74-7,61-27,1.17-2.07,8-14.75,4-29-3.79-13.37-15-20.47-19-23-29.39-18.61-62.15,7.67-125,11-56.32,3-69.68-16-93.5-.5-19.34,12.58-15.19,28.12-41.5,80.5C3939.76,2054.47,3919.8,2071.7,3925.39,2078.43Z"/><path class="cls-4" d="M3606.36,1880.89a72.8,72.8,0,0,1,0,14h0c.69,10.55-.67,21-7.5,26.5-14.74,11.91-35.22-15.15-86.5-21.5-26.72-3.31-57.91-.51-75-19-1.64-1.78-3.07-3.64-3.18-3.81-4.58-6.79-6.17-17.16-11.82-49.19-3.88-22-8.81-43.87-12-66-7.55-52.51-11.36-79-28-105-23.3-36.47-55.08-46.07-51-67,1.93-9.9,10.67-16.09,19-22,24.76-17.56,53.62-12.79,58-12,.87.16,1.88.35,3.06.65,30.74,7.81,54.93,38.56,60.94,46.35,35.5,46,54,78.55,64.5,89.5,0,0,2.41,2.52,2,3-.73.87-9.87-9.58-23-12-1.78-.33-15.07-2.6-22,5-5,5.5-4.33,13.59-4,17,3.08,31.59,50,81.72,55,87C3544.86,1792.39,3603.28,1852.45,3606.36,1880.89Z"/></g><g id="Paleta_1_Plain" data-name="Paleta 1 Plain"><path class="cls-27" d="M2382.43,1907.48c-13,8.31,2.63,74.72,41,126,64,85.55,181,115.34,196,95,1.75-2.38.5-14.25-2-38-2.23-21.21-3.4-32-6-39-4.27-11.58-12.09-21-40-41-26.49-19-50.25-32.47-72-44-39-20.65-38-17.24-68-34C2395.39,1912.37,2387.83,1904,2382.43,1907.48Z"/><path class="cls-6" d="M2498.43,1691.48c2.4-9.56,13.93-7.47,28.5-21.5,21.9-21.07,22.92-51.79,27-51,2,.39,1.08,7.32,4,21a143.61,143.61,0,0,0,6,20c7.25,20.47,13.31,41.35,20,62,15.69,48.45,23.54,72.68,18,76-5.8,3.49-17.9-16.26-61.5-56.5C2511.87,1715.12,2495.4,1703.58,2498.43,1691.48Z"/><path class="cls-6" d="M2577.39,1592.48c3.38,4.3,10.63,1.3,19.91,7,8,4.93,11.58,12.68,13.94,18,19,42.83,24.82,65.76,41.81,102,31.69,67.58,34.83,74.87,36.55,75a.81.81,0,0,0,.29,0c4.24-.76,5.16-13.93,5.47-18.5,2.67-38.25-22.89-122-22.89-122-5.38-17.6-7-22.43-8.47-26.5s-2.3-5.28-3-8.15c-.26-1.06-.37-1.76-.47-2.35a50,50,0,0,0-4.48-12.5c-2.91-6.06-4.34-23.22,5.47-33.5,5.63-5.88,15.53-9.35,23.9-7,11.21,3.16,15.35,15.72,20.52,14,2.32-.76,3-3.53,5-9,2.77-7.56,7-14.51,10-22,1.67-4.2,2.81-6.65,18-37,9.68-19.32,18.85-38.91,29-58,10.94-20.56,16.21-29.1,20-45,3.07-12.83,5.53-23.82,0-35-6.07-12.28-19.19-19.53-31-21-18-2.22-31.84,9.1-44,19-11.48,9.36-18.64,18.79-32,39-15,22.69-23.85,38.23-33,53-18.3,29.58-34.32,60.57-53.62,89.5C2585.28,1565,2571.46,1585,2577.39,1592.48Z"/><path class="cls-5" d="M2727.43,1621.48c1-2,1.86-2.56,13-11,1.85-1.39,18.42-14,21-16,5.54-4.29,8-7.44,27.5-35.5,14.29-20.58,18.1-26.31,27-39,3.28-4.67,11-15.7,20-28,6.28-8.59,18.86-25.78,35-46,21.9-27.41,33-41.21,42-46,1.53-.81,38.76-20.08,59-2,11,9.86,12.73,27,11,38-.3,1.93-1.16,6.58-10,23-7.56,14.06-13.71,23.26-22,36-14.32,22-11.33,18.21-23,36-14.4,22-17.81,25.69-27,40-.81,1.27-17.87,27.93-31,52-17.74,32.55-55.74,102.23-40,116,12,10.54,51.15-15.44,58-20,18.46-12.26,24.54-22.11,50-47,12-11.76,23.53-22,46.5-42.5,58.12-51.83,81.15-66.75,105-68,5.32-.27,19.1-1,29,8,7.75,7,9.43,16.69,10,20,4.76,27.39-27.33,61.65-46,82-59.06,64.39-102.92,119.35-112.5,112.5-3.89-2.78.39-13.94-7-19-4.41-3-10.19-2-15-1a53.08,53.08,0,0,0-23,11c-27.35,23.29-56.55,95.55-84.5,96.5-15.69.54-28.48-21.64-45-49-8.57-14.2-14.38-30.47-26-63-1.25-3.52-8.16-25-22-68-3.1-9.63-5.44-19.52-9-29C2730,1640.13,2722.9,1630.59,2727.43,1621.48Z"/><path class="cls-42" d="M2846.43,2044.48c8.58,10.32,54.86-37,145-60,100.12-25.54,109-27,109-27,22-3.61,49.74-7,61-27,1.17-2.07,8-14.75,4-29-3.79-13.36-15-20.47-19-23-29.39-18.61-62.15,7.67-125,11-56.32,3-69.68-16-93.5-.5-19.34,12.58-15.19,28.12-41.5,80.5C2860.8,2020.53,2840.84,2037.75,2846.43,2044.48Z"/><path class="cls-7" d="M2535.32,1859a72.8,72.8,0,0,1,0,14h0c.69,10.55-.67,21-7.5,26.5-14.74,11.91-35.22-15.15-86.5-21.5-26.72-3.31-57.91-.51-75-19a48.87,48.87,0,0,1-3.18-3.81c-4.58-6.79-6.17-17.16-11.82-49.19-3.88-22-8.81-43.86-12-66-7.55-52.51-11.36-79-28-105-23.3-36.47-55.08-46.07-51-67,1.93-9.89,10.67-16.09,19-22,24.76-17.55,53.62-12.79,58-12,.87.16,1.88.36,3.06.66,30.74,7.8,54.93,38.55,60.94,46.34,35.5,46,54,78.55,64.5,89.5,0,0,2.41,2.52,2,3-.73.87-9.87-9.57-23-12-1.78-.33-15.07-2.6-22,5-5,5.5-4.33,13.59-4,17,3.08,31.59,50,81.72,55,87C2473.82,1770.52,2532.24,1830.58,2535.32,1859Z"/></g><g id="Base_Invertida" data-name="Base Invertida"><rect x="1108.86" y="3897.11" width="1000" height="989"/><path class="cls-2" d="M1279.3,4536.32c-13,8.31,2.63,74.72,41,126,64,85.55,181,115.34,196,95,1.75-2.38.5-14.25-2-38-2.24-21.21-3.41-32-6-39-4.28-11.58-12.09-21-40-41-26.49-19-50.26-32.47-72-44-39-20.65-38-17.24-68-34C1292.25,4541.21,1284.7,4532.88,1279.3,4536.32Z"/><path class="cls-2" d="M1430.3,4490.32a72.8,72.8,0,0,1,0,14h0c.68,10.55-.68,21-7.5,26.5-14.75,11.91-35.23-15.15-86.5-21.5-26.73-3.31-57.92-.51-75-19-1.64-1.77-3.08-3.64-3.19-3.81-4.58-6.79-6.16-17.16-11.81-49.19-3.89-22-8.82-43.86-12-66-7.56-52.51-11.36-78.95-28-105-23.3-36.47-55.08-46.07-51-67,1.93-9.89,10.66-16.09,19-22,24.76-17.55,53.62-12.79,58-12,.86.16,1.87.36,3,.66,30.75,7.8,54.93,38.55,61,46.34,35.5,46,54,78.55,64.5,89.5,0,0,2.41,2.52,2,3-.74.87-9.88-9.57-23-12-1.79-.33-15.08-2.6-22,5-5,5.5-4.33,13.59-4,17,3.08,31.59,50,81.72,55,87C1368.8,4401.82,1427.21,4461.89,1430.3,4490.32Z"/><path class="cls-2" d="M1395.3,4320.32c2.4-9.56,13.92-7.47,28.5-21.5,21.89-21.07,22.91-51.79,27-51,2,.39,1.08,7.32,4,21a143.61,143.61,0,0,0,6,20c7.25,20.47,13.31,41.35,20,62,15.69,48.45,23.54,72.68,18,76-5.81,3.49-17.91-16.26-61.5-56.5C1408.73,4344,1392.26,4332.42,1395.3,4320.32Z"/><path class="cls-2" d="M1474.25,4221.32c3.39,4.3,10.63,1.3,19.92,7,8,4.93,11.57,12.68,13.93,18,19,42.83,24.82,65.76,41.82,102,31.69,67.58,34.83,74.87,36.55,75a.79.79,0,0,0,.28,0c4.25-.76,5.16-13.93,5.48-18.5,2.66-38.25-22.9-122-22.9-122-5.37-17.6-7-22.43-8.46-26.5s-2.3-5.28-3-8.15c-.26-1.06-.36-1.76-.47-2.35a49.56,49.56,0,0,0-4.48-12.5c-2.91-6.06-4.33-23.22,5.48-33.5,5.62-5.88,15.53-9.35,23.89-7,11.22,3.16,15.35,15.72,20.53,14,2.32-.76,3-3.53,5-9,2.76-7.56,7-14.51,10-22,1.66-4.2,2.81-6.65,18-37,9.67-19.32,18.85-38.91,29-58,10.94-20.56,16.2-29.1,20-45,3.06-12.83,5.52-23.82,0-35-6.07-12.28-19.2-19.53-31-21-18-2.22-31.85,9.1-44,19-11.49,9.36-18.65,18.79-32,39-15,22.69-23.86,38.23-33,53-18.3,29.58-34.32,60.57-53.62,89.5C1482.15,4193.86,1468.33,4213.8,1474.25,4221.32Z"/><path class="cls-2" d="M1624.3,4250.32c1-2,1.85-2.56,13-11,1.85-1.39,18.42-14,21-16,5.53-4.29,8-7.44,27.5-35.5,14.29-20.58,18.1-26.31,27-39,3.28-4.67,11-15.7,20-28,6.27-8.59,18.85-25.78,35-46,21.9-27.41,33-41.21,42-46,1.53-.81,38.76-20.08,59-2,11,9.86,12.72,27,11,38-.3,1.93-1.17,6.58-10,23-7.57,14.06-13.72,23.26-22,36-14.33,22-11.33,18.21-23,36-14.4,22-17.81,25.69-27,40-.82,1.27-17.87,27.93-31,52-17.75,32.55-55.75,102.23-40,116,12,10.54,51.15-15.44,58-20,18.46-12.26,24.54-22.11,50-47,12-11.76,23.52-22,46.5-42.5,58.12-51.83,81.15-66.75,105-68,5.31-.27,19.1-1,29,8,7.75,7.05,9.42,16.69,10,20,4.75,27.39-27.33,61.65-46,82-59.07,64.39-102.92,119.35-112.5,112.5-3.89-2.78.38-13.94-7-19-4.41-3-10.2-1.95-15-1a53,53,0,0,0-23,11c-27.36,23.29-56.55,95.55-84.5,96.5-15.7.54-28.49-21.64-45-49-8.58-14.2-14.39-30.47-26-63-1.26-3.52-8.17-25-22-68-3.1-9.63-5.44-19.52-9-29C1626.9,4269,1619.76,4259.43,1624.3,4250.32Z"/><path class="cls-2" d="M1743.3,4673.32c8.58,10.32,54.86-37,145-60,100.11-25.54,109-27,109-27,22-3.61,49.73-7,61-27,1.17-2.07,8-14.75,4-29-3.79-13.36-15-20.47-19-23-29.4-18.61-62.15,7.67-125,11-56.33,3-69.68-16-93.5-.5-19.34,12.58-15.2,28.12-41.5,80.5C1757.67,4649.37,1737.7,4666.59,1743.3,4673.32Z"/></g><g id="Base"><path d="M124.36,4549.61c-13,8.3,2.62,74.71,41,126,64,85.55,181,115.34,196,95,1.75-2.38.5-14.25-2-38-2.24-21.22-3.41-32-6-39-4.28-11.59-12.09-21-40-41-26.49-19-50.26-32.47-72-44-39-20.66-38-17.25-68-34C137.31,4554.5,129.76,4546.17,124.36,4549.61Z"/><path d="M275.36,4503.61a72.8,72.8,0,0,1,0,14h0c.68,10.55-.68,21-7.5,26.5-14.75,11.91-35.23-15.15-86.5-21.5-26.73-3.31-57.92-.51-75-19-1.64-1.78-3.08-3.65-3.19-3.81-4.58-6.79-6.16-17.16-11.81-49.19-3.89-22-8.82-43.87-12-66-7.56-52.52-11.36-78.95-28-105-23.3-36.47-55.09-46.07-51-67,1.93-9.9,10.66-16.09,19-22,24.76-17.56,53.61-12.79,58-12,.86.16,1.87.35,3,.65,30.74,7.81,54.93,38.56,61,46.35,35.49,46,54,78.55,64.5,89.5,0,0,2.41,2.52,2,3-.74.87-9.88-9.58-23-12-1.79-.33-15.08-2.6-22,5-5,5.5-4.34,13.59-4,17,3.08,31.59,50,81.72,55,87C213.86,4415.11,272.27,4475.17,275.36,4503.61Z"/><path d="M240.36,4333.61c2.4-9.57,13.92-7.47,28.5-21.5,21.89-21.07,22.91-51.8,27-51,2,.38,1.08,7.31,4,21a142.26,142.26,0,0,0,6,20c7.25,20.47,13.31,41.34,20,62,15.69,48.45,23.53,72.67,18,76-5.81,3.49-17.91-16.26-61.5-56.5C253.79,4357.24,237.32,4345.71,240.36,4333.61Z"/><path d="M319.31,4234.61c3.39,4.3,10.63,1.29,19.91,7,8,4.93,11.58,12.68,13.94,18,19,42.82,24.82,65.76,41.82,102,31.69,67.57,34.83,74.87,36.55,75a.67.67,0,0,0,.28,0c4.24-.76,5.16-13.93,5.48-18.5,2.66-38.26-22.9-122-22.9-122-5.37-17.6-7-22.44-8.46-26.5s-2.31-5.28-3-8.16c-.26-1.06-.36-1.75-.47-2.34a49.4,49.4,0,0,0-4.48-12.5c-2.91-6.06-4.33-23.23,5.48-33.5,5.62-5.89,15.53-9.35,23.89-7,11.21,3.15,15.35,15.72,20.53,14,2.31-.77,3-3.53,5-9,2.76-7.57,7-14.51,10-22,1.66-4.21,2.81-6.65,18-37,9.67-19.33,18.84-38.92,29-58,10.94-20.56,16.2-29.11,20-45,3.06-12.83,5.52-23.83,0-35-6.07-12.28-19.2-19.54-31-21-18-2.22-31.85,9.1-44,19-11.49,9.36-18.65,18.79-32,39-15,22.68-23.86,38.22-33,53-18.3,29.58-34.32,60.57-53.62,89.5C327.21,4207.15,313.39,4227.08,319.31,4234.61Z"/><path d="M469.36,4263.61c1-2,1.85-2.56,13-11,1.84-1.4,18.42-14,21-16,5.53-4.29,8-7.45,27.5-35.5,14.28-20.59,18.1-26.32,27-39,3.27-4.67,11-15.71,20-28,6.27-8.6,18.85-25.79,35-46,21.9-27.41,33-41.22,42-46,1.53-.82,38.75-20.09,59-2,11,9.86,12.72,27,11,38-.3,1.93-1.17,6.58-10,23-7.57,14.06-13.72,23.26-22,36-14.33,22-11.33,18.21-23,36-14.4,22-17.81,25.68-27,40-.82,1.27-17.87,27.92-31,52-17.75,32.54-55.75,102.23-40,116,12,10.54,51.15-15.45,58-20,18.46-12.26,24.54-22.11,50-47,12-11.76,23.52-22,46.5-42.5,58.11-51.83,81.15-66.75,105-68,5.31-.28,19.1-1,29,8,7.75,7,9.42,16.69,10,20,4.75,27.39-27.33,61.65-46,82C765.29,4378,721.44,4433,711.86,4426.11c-3.89-2.78.38-13.94-7-19-4.42-3-10.2-1.95-15-1a53,53,0,0,0-23,11c-27.36,23.28-56.55,95.55-84.5,96.5-15.7.53-28.49-21.64-45-49-8.58-14.21-14.39-30.47-26-63-1.26-3.52-8.17-25-22-68-3.1-9.63-5.44-19.52-9-29C472,4282.25,464.82,4272.72,469.36,4263.61Z"/><path d="M588.36,4686.61c8.58,10.32,54.86-37,145-60,100.11-25.54,109-27,109-27,22-3.61,49.73-7,61-27,1.17-2.07,8-14.75,4-29-3.79-13.37-15-20.48-19-23-29.4-18.61-62.15,7.67-125,11-56.33,3-69.68-16-93.5-.5-19.34,12.58-15.2,28.12-41.5,80.5C602.73,4662.65,582.76,4679.88,588.36,4686.61Z"/></g></g></svg>