<svg xmlns="http://www.w3.org/2000/svg" viewBox="0 0 500 500"><defs><style>.cls-1{fill:#ff0030;}.cls-2{fill:#fff;}</style></defs><title>Recurso 3</title><g id="Capa_2" data-name="Capa 2"><g id="Capa_1-2" data-name="Capa 1"><circle class="cls-1" cx="250" cy="250" r="250"/><path class="cls-2" d="M375.2,185c-41.8-65.51-104.78-19.94-104.78-19.94a33.61,33.61,0,0,1-16.73,5.38H236.82a33.39,33.39,0,0,1-16.73-5.36S157.11,119.5,115.3,185s-25,136.81-25,136.81c3,17.46,12.68,29.11,31,27.65s58-47,58-47c3.28-3.75,10.16-6.82,15.26-6.82l101.13,0c5.11,0,12,3.07,15.26,6.83,0,0,39.73,45.57,58.06,47s28.09-10.2,31-27.65C400.13,321.79,417,250.49,375.2,185Zm-168,53.32H185.56v19.93a20.8,20.8,0,0,1-11.7,3.26c-7.09-.1-10.31-3.65-10.31-3.65V238.31H143.07s-2.55-2.5-3.24-9.08a20.12,20.12,0,0,1,2.83-11.9h21.69V196.65a24.46,24.46,0,0,1,10.88-2.1A29.84,29.84,0,0,1,186.36,197l-.09,20.29h20.48a19,19,0,0,1,3.87,9.67C210.91,232.3,207.24,238.31,207.24,238.31ZM306.71,261c-9.5,0-17.15-7.32-17.15-16.37s7.65-16.37,17.15-16.37,17.17,7.31,17.17,16.37S316.16,261,306.71,261Zm0-45c-9.5,0-17.15-7.32-17.15-16.37s7.65-16.37,17.15-16.37,17.17,7.31,17.17,16.37S316.16,216,306.71,216Zm42.74,24.18c-9.49,0-17.15-7.32-17.15-16.37s7.66-16.37,17.15-16.37,17.17,7.31,17.17,16.37S358.91,240.17,349.45,240.17Z"/></g></g></svg>