<svg xmlns="http://www.w3.org/2000/svg" viewBox="0 0 500 500"><defs><style>.cls-1{fill:#ff0030;}.cls-2{fill:#fff;}</style></defs><title>Recurso 2</title><g id="Capa_2" data-name="Capa 2"><g id="Capa_1-2" data-name="Capa 1"><circle class="cls-1" cx="250" cy="250" r="250"/><path class="cls-2" d="M306.94,115.8H193.09c-10.9,0-19.69,8.31-19.69,18.55V351.89c0,10.23,8.79,18.53,19.69,18.53H306.94c10.88,0,19.69-8.3,19.69-18.53V134.35C326.63,124.11,317.82,115.8,306.94,115.8Zm-85,11.26h56.21c1.42,0,2.57,2,2.57,4.47s-1.15,4.47-2.57,4.47H221.92c-1.43,0-2.56-2-2.56-4.47S220.49,127.06,221.92,127.06ZM250,352.11c-6.93,0-12.57-5.3-12.57-11.84s5.64-11.82,12.57-11.82,12.56,5.29,12.56,11.82S256.94,352.11,250,352.11Zm61.86-40.53H188.16V147.1H311.88Z"/></g></g></svg>