<svg xmlns="http://www.w3.org/2000/svg" viewBox="0 0 500 500"><defs><style>.cls-1{fill:#ff0030;}.cls-2{fill:#fff;}</style></defs><title>Recurso 1</title><g id="Capa_2" data-name="Capa 2"><g id="Capa_1-2" data-name="Capa 1"><circle class="cls-1" cx="250" cy="250" r="250"/><path class="cls-2" d="M398.21,155.8H336.8c-6.34,0-11.49,5.45-11.49,12.18v12.74h84.4V168C409.71,161.25,404.56,155.8,398.21,155.8Z"/><path class="cls-2" d="M399,219H325.31V324.22c0,6.72,5.15,12.18,11.49,12.18h61.41c6.35,0,11.5-5.46,11.5-12.18V219Zm-31.43,48.55a7.94,7.94,0,1,1-7.48,7.93A7.72,7.72,0,0,1,367.59,267.51Zm18.55,37.84H349A5.67,5.67,0,0,1,349,294h37.15a5.67,5.67,0,0,1,0,11.33Z"/><polygon class="cls-2" points="404.36 192.05 399.02 192.05 336 192.05 330.65 192.05 325.31 192.05 325.31 207.63 330.65 207.63 336 207.63 399.02 207.63 404.36 207.63 409.71 207.63 409.71 192.05 404.36 192.05"/><path class="cls-2" d="M303.45,143.5h-201c-6.46-.25-11.9,5.06-12.19,11.9V287.05c.29,6.84,5.73,12.16,12.19,11.9h201c6.46.26,11.9-5.06,12.19-11.9V155.4C315.35,148.56,309.91,143.25,303.45,143.5Z"/><path class="cls-2" d="M250,345.18H233.32V310.56A5.5,5.5,0,0,0,228,304.9h-50.3a5.5,5.5,0,0,0-5.34,5.66v34.62H155.93a5.67,5.67,0,0,0,0,11.33H250a5.67,5.67,0,0,0,0-11.33Z"/></g></g></svg>